<svg width="24" height="24" viewBox="0 0 24 24" fill="none" xmlns="http://www.w3.org/2000/svg">
<path d="M11.9991 11.1075L21.5841 4.95C21.1987 4.66096 20.7308 4.50323 20.2491 4.5H3.74906C3.26736 4.50323 2.79942 4.66096 2.41406 4.95L11.9991 11.1075Z" fill="white"/>
<path d="M12.405 12.6301L12.2775 12.6901H12.2175C12.1484 12.7209 12.0751 12.7412 12 12.7501C11.9377 12.7579 11.8748 12.7579 11.8125 12.7501H11.7525L11.625 12.6901L1.575 6.19507C1.52698 6.37622 1.50179 6.56267 1.5 6.75007V17.2501C1.5 17.8468 1.73705 18.4191 2.15901 18.8411C2.58097 19.263 3.15326 19.5001 3.75 19.5001H20.25C20.8467 19.5001 21.419 19.263 21.841 18.8411C22.2629 18.4191 22.5 17.8468 22.5 17.2501V6.75007C22.4982 6.56267 22.473 6.37622 22.425 6.19507L12.405 12.6301Z" fill="white"/>
</svg>
