<svg width="16" height="28" viewBox="0 0 16 28" fill="none" xmlns="http://www.w3.org/2000/svg">
<path fill-rule="evenodd" clip-rule="evenodd" d="M8.00174 0.299377C11.9978 0.299377 15.2379 4.04828 15.2379 8.67193C15.2379 13.2591 10.3823 20.2662 8.00174 23.6454C5.6212 20.2675 0.765625 13.2591 0.765625 8.67193C0.765625 4.04828 4.00568 0.299377 8.00174 0.299377ZM12.3646 19.247C14.3187 21.2138 14.1972 24.2481 11.9967 26.0809C9.77139 27.9345 6.23209 27.9345 4.0068 26.0809C1.80627 24.2481 1.68476 21.2138 3.63892 19.247C3.86055 19.6114 4.0833 19.9707 4.30718 20.3222C2.98979 21.7293 3.11129 23.7118 4.67169 25.0122C6.49309 26.5287 9.51039 26.5287 11.3307 25.0122C12.8911 23.7118 13.0126 21.7293 11.6952 20.3222C11.9179 19.9707 12.1418 19.6114 12.3634 19.247H12.3646ZM8.00174 3.97929C10.2416 3.97929 12.0574 6.08024 12.0574 8.67193C12.0574 11.2636 10.2416 13.3646 8.00174 13.3646C5.76183 13.3646 3.94605 11.2636 3.94605 8.67193C3.94605 6.08024 5.76183 3.97929 8.00174 3.97929Z" fill="#757575"/>
</svg>
