<svg width="24" height="28" viewBox="0 0 24 28" fill="none" xmlns="http://www.w3.org/2000/svg">
<path fill-rule="evenodd" clip-rule="evenodd" d="M8.76814 12.6357L6.49309 16.0331C7.87732 17.6145 9.55748 18.9916 11.4663 20.0949L13.9661 17.1384C14.9274 16.0016 16.349 15.5643 17.6711 15.9989L20.5247 16.937C22.1374 17.4671 23.25 19.1716 23.25 21.1115V23.8643C23.25 24.3436 22.9142 24.7321 22.5 24.7321C18.4125 24.7321 14.5811 23.7132 11.3062 21.9335C8.44537 20.3789 6.00064 18.2387 4.18474 15.6791C2.02182 12.6304 0.75 8.98254 0.75 5.04881C0.75 4.68373 0.947498 4.35766 1.2441 4.2331L3.46965 3.29839C5.29249 2.53281 7.31891 3.50182 8.1432 5.53286L9.1983 8.1325C9.7971 9.60791 9.63097 11.3473 8.76814 12.6357Z" fill="#757575"/>
</svg>
