<svg width="24" height="29" viewBox="0 0 24 29" fill="none" xmlns="http://www.w3.org/2000/svg">
<path d="M12.1904 1.81409C6.49711 1.81409 1.88128 7.15711 1.88128 13.7486C1.88128 16.0034 2.42184 18.1122 3.36061 19.9112L1.5 26.3141L7.20769 24.1987C8.68463 25.1439 10.3832 25.6832 12.1904 25.6832C17.8845 25.6832 22.5 20.3394 22.5 13.7486C22.5 7.15711 17.8845 1.81409 12.1904 1.81409ZM17.3168 18.281C17.0742 18.9825 15.9773 19.6227 15.4934 19.6522C15.0099 19.6821 14.9961 20.0893 12.3602 18.7534C9.72469 17.4172 8.13905 14.1682 8.01403 13.959C7.88892 13.7505 6.99309 12.2611 7.04142 10.7622C7.09008 9.26307 7.79362 8.5558 8.04473 8.26163C8.29556 7.96703 8.58314 7.91426 8.75873 7.91092C8.9663 7.90699 9.10073 7.9037 9.25434 7.91032C9.40781 7.9171 9.63834 7.87286 9.83794 8.49214C10.0374 9.11137 10.515 10.6333 10.576 10.7884C10.6371 10.9437 10.6748 11.1234 10.5808 11.3228C10.4865 11.5225 10.4382 11.6473 10.3014 11.8195C10.1638 11.9916 10.012 12.2046 9.88927 12.3362C9.75239 12.482 9.60942 12.641 9.75333 12.9525C9.89714 13.2638 10.3933 14.2845 11.1492 15.1256C12.1207 16.2068 12.9585 16.5654 13.2163 16.7288C13.4748 16.8931 13.6291 16.8749 13.7894 16.678C13.949 16.4812 14.4756 15.8169 14.6611 15.5204C14.8465 15.223 15.0202 15.2812 15.2584 15.393C15.4964 15.5052 16.7657 16.2984 17.0243 16.4622C17.2826 16.6257 17.4552 16.7099 17.517 16.8395C17.5787 16.9697 17.5592 17.5795 17.3168 18.281Z" fill="#757575"/>
</svg>
