<svg width="320" height="180" viewBox="0 0 320 180" fill="none" xmlns="http://www.w3.org/2000/svg">
<rect width="320" height="180" fill="#ECDFCC"/>
<path d="M96.72 41V38.48H101.136C102.288 38.48 103.296 38.232 104.16 37.736C105.04 37.24 105.72 36.552 106.2 35.672C106.696 34.776 106.944 33.744 106.944 32.576C106.944 31.424 106.696 30.408 106.2 29.528C105.704 28.648 105.016 27.96 104.136 27.464C103.272 26.968 102.272 26.72 101.136 26.72H96.72V24.2H101.208C102.424 24.2 103.552 24.416 104.592 24.848C105.632 25.264 106.536 25.856 107.304 26.624C108.088 27.376 108.696 28.264 109.128 29.288C109.56 30.296 109.776 31.4 109.776 32.6C109.776 33.784 109.56 34.888 109.128 35.912C108.696 36.936 108.096 37.832 107.328 38.6C106.56 39.352 105.656 39.944 104.616 40.376C103.576 40.792 102.456 41 101.256 41H96.72ZM94.824 41V24.2H97.584V41H94.824ZM112.43 41V29.48H115.07V41H112.43ZM115.07 34.592L114.158 34.136C114.158 32.68 114.478 31.504 115.118 30.608C115.774 29.696 116.758 29.24 118.07 29.24C118.646 29.24 119.166 29.344 119.63 29.552C120.094 29.76 120.526 30.096 120.926 30.56L119.198 32.336C118.99 32.112 118.758 31.952 118.502 31.856C118.246 31.76 117.95 31.712 117.614 31.712C116.878 31.712 116.27 31.944 115.79 32.408C115.31 32.872 115.07 33.6 115.07 34.592ZM130.678 41.24C129.702 41.24 128.83 41.048 128.062 40.664C127.31 40.264 126.702 39.736 126.238 39.08L128.182 37.304C128.454 37.72 128.798 38.04 129.214 38.264C129.63 38.488 130.086 38.6 130.582 38.6C131.126 38.6 131.59 38.488 131.974 38.264C132.358 38.04 132.654 37.72 132.862 37.304C133.07 36.888 133.174 36.392 133.174 35.816V24.2H135.934V35.6C135.934 36.72 135.71 37.704 135.262 38.552C134.83 39.4 134.222 40.064 133.438 40.544C132.654 41.008 131.734 41.24 130.678 41.24ZM144.489 41.24C143.369 41.24 142.353 40.976 141.441 40.448C140.529 39.904 139.801 39.176 139.257 38.264C138.729 37.352 138.465 36.336 138.465 35.216C138.465 34.096 138.729 33.088 139.257 32.192C139.801 31.296 140.529 30.584 141.441 30.056C142.353 29.512 143.369 29.24 144.489 29.24C145.625 29.24 146.649 29.504 147.561 30.032C148.473 30.56 149.193 31.28 149.721 32.192C150.265 33.088 150.537 34.096 150.537 35.216C150.537 36.336 150.265 37.352 149.721 38.264C149.193 39.176 148.473 39.904 147.561 40.448C146.649 40.976 145.625 41.24 144.489 41.24ZM144.489 38.696C145.145 38.696 145.721 38.552 146.217 38.264C146.729 37.96 147.121 37.544 147.393 37.016C147.681 36.488 147.825 35.888 147.825 35.216C147.825 34.544 147.681 33.952 147.393 33.44C147.105 32.928 146.713 32.528 146.217 32.24C145.721 31.936 145.145 31.784 144.489 31.784C143.849 31.784 143.273 31.936 142.761 32.24C142.265 32.528 141.873 32.928 141.585 33.44C141.313 33.952 141.177 34.544 141.177 35.216C141.177 35.888 141.313 36.488 141.585 37.016C141.873 37.544 142.265 37.96 142.761 38.264C143.273 38.552 143.849 38.696 144.489 38.696ZM160.829 41V34.352C160.829 33.584 160.581 32.952 160.085 32.456C159.605 31.96 158.981 31.712 158.213 31.712C157.701 31.712 157.245 31.824 156.845 32.048C156.445 32.272 156.133 32.584 155.909 32.984C155.685 33.384 155.573 33.84 155.573 34.352L154.541 33.776C154.541 32.896 154.733 32.12 155.117 31.448C155.501 30.76 156.029 30.224 156.701 29.84C157.389 29.44 158.157 29.24 159.005 29.24C159.869 29.24 160.637 29.432 161.309 29.816C161.981 30.2 162.509 30.736 162.893 31.424C163.277 32.096 163.469 32.88 163.469 33.776V41H160.829ZM152.933 41V23.72H155.573V41H152.933ZM174.247 41V34.352C174.247 33.584 173.999 32.952 173.503 32.456C173.023 31.96 172.399 31.712 171.631 31.712C171.119 31.712 170.663 31.824 170.263 32.048C169.863 32.272 169.551 32.584 169.327 32.984C169.103 33.384 168.991 33.84 168.991 34.352L167.959 33.776C167.959 32.896 168.151 32.12 168.535 31.448C168.919 30.76 169.447 30.224 170.119 29.84C170.807 29.44 171.575 29.24 172.423 29.24C173.287 29.24 174.055 29.464 174.727 29.912C175.399 30.344 175.927 30.912 176.311 31.616C176.695 32.304 176.887 33.024 176.887 33.776V41H174.247ZM166.351 41V29.48H168.991V41H166.351ZM187.031 41V38.48H191.447C192.599 38.48 193.607 38.232 194.471 37.736C195.351 37.24 196.031 36.552 196.511 35.672C197.007 34.776 197.255 33.744 197.255 32.576C197.255 31.424 197.007 30.408 196.511 29.528C196.015 28.648 195.327 27.96 194.447 27.464C193.583 26.968 192.583 26.72 191.447 26.72H187.031V24.2H191.519C192.735 24.2 193.863 24.416 194.903 24.848C195.943 25.264 196.847 25.856 197.615 26.624C198.399 27.376 199.007 28.264 199.439 29.288C199.871 30.296 200.087 31.4 200.087 32.6C200.087 33.784 199.871 34.888 199.439 35.912C199.007 36.936 198.407 37.832 197.639 38.6C196.871 39.352 195.967 39.944 194.927 40.376C193.887 40.792 192.767 41 191.567 41H187.031ZM185.135 41V24.2H187.895V41H185.135ZM208.021 41.24C206.901 41.24 205.885 40.976 204.973 40.448C204.061 39.904 203.333 39.176 202.789 38.264C202.261 37.352 201.997 36.336 201.997 35.216C201.997 34.096 202.261 33.088 202.789 32.192C203.333 31.296 204.061 30.584 204.973 30.056C205.885 29.512 206.901 29.24 208.021 29.24C209.157 29.24 210.181 29.504 211.093 30.032C212.005 30.56 212.725 31.28 213.253 32.192C213.797 33.088 214.069 34.096 214.069 35.216C214.069 36.336 213.797 37.352 213.253 38.264C212.725 39.176 212.005 39.904 211.093 40.448C210.181 40.976 209.157 41.24 208.021 41.24ZM208.021 38.696C208.677 38.696 209.253 38.552 209.749 38.264C210.261 37.96 210.653 37.544 210.925 37.016C211.213 36.488 211.357 35.888 211.357 35.216C211.357 34.544 211.213 33.952 210.925 33.44C210.637 32.928 210.245 32.528 209.749 32.24C209.253 31.936 208.677 31.784 208.021 31.784C207.381 31.784 206.805 31.936 206.293 32.24C205.797 32.528 205.405 32.928 205.117 33.44C204.845 33.952 204.709 34.544 204.709 35.216C204.709 35.888 204.845 36.488 205.117 37.016C205.405 37.544 205.797 37.96 206.293 38.264C206.805 38.552 207.381 38.696 208.021 38.696ZM221.816 41.24C220.664 41.24 219.624 40.984 218.696 40.472C217.784 39.944 217.056 39.224 216.512 38.312C215.984 37.4 215.72 36.376 215.72 35.24C215.72 34.104 215.984 33.088 216.512 32.192C217.04 31.28 217.752 30.56 218.648 30.032C219.56 29.504 220.568 29.24 221.672 29.24C222.744 29.24 223.688 29.488 224.504 29.984C225.336 30.48 225.984 31.16 226.448 32.024C226.928 32.888 227.168 33.872 227.168 34.976C227.168 35.168 227.152 35.368 227.12 35.576C227.104 35.768 227.072 35.984 227.024 36.224H217.568V34.064H225.656L224.672 34.928C224.64 34.224 224.504 33.632 224.264 33.152C224.024 32.672 223.68 32.304 223.232 32.048C222.8 31.792 222.264 31.664 221.624 31.664C220.952 31.664 220.368 31.808 219.872 32.096C219.376 32.384 218.992 32.792 218.72 33.32C218.448 33.832 218.312 34.448 218.312 35.168C218.312 35.888 218.456 36.52 218.744 37.064C219.032 37.608 219.44 38.032 219.968 38.336C220.496 38.624 221.104 38.768 221.792 38.768C222.384 38.768 222.928 38.664 223.424 38.456C223.936 38.248 224.368 37.944 224.72 37.544L226.4 39.248C225.84 39.904 225.16 40.4 224.36 40.736C223.56 41.072 222.712 41.24 221.816 41.24Z" fill="#2A2D36"/>
<line x1="101" y1="47.5" x2="221" y2="47.5" stroke="#757575"/>
<path d="M99.216 78V66.8H100.496L105.152 74.464H104.32L108.976 66.8H110.256V78H108.416V70.032L108.832 70.144L105.376 75.824H104.096L100.64 70.144L101.056 70.032V78H99.216ZM114.149 78V76.4H117.365C117.93 76.4 118.367 76.224 118.677 75.872C118.986 75.52 119.141 75.1147 119.141 74.656C119.141 74.3467 119.071 74.0587 118.933 73.792C118.794 73.5253 118.591 73.312 118.325 73.152C118.058 72.992 117.738 72.912 117.365 72.912H114.149V71.312H117.093C117.573 71.312 117.957 71.1893 118.245 70.944C118.533 70.6987 118.677 70.336 118.677 69.856C118.677 69.376 118.533 69.0133 118.245 68.768C117.957 68.5227 117.573 68.4 117.093 68.4H114.149V66.8H117.141C117.898 66.8 118.527 66.9387 119.029 67.216C119.53 67.4933 119.903 67.8507 120.149 68.288C120.394 68.7253 120.517 69.1947 120.517 69.696C120.517 70.2827 120.351 70.8 120.021 71.248C119.701 71.696 119.226 72.0587 118.597 72.336L118.741 71.76C119.445 72.048 119.994 72.4533 120.389 72.976C120.783 73.4987 120.981 74.112 120.981 74.816C120.981 75.392 120.837 75.92 120.549 76.4C120.271 76.88 119.855 77.2693 119.301 77.568C118.757 77.856 118.085 78 117.285 78H114.149ZM112.885 78V66.8H114.725V78H112.885ZM124.302 78V76.4H127.518C128.083 76.4 128.521 76.224 128.83 75.872C129.139 75.52 129.294 75.1147 129.294 74.656C129.294 74.3467 129.225 74.0587 129.086 73.792C128.947 73.5253 128.745 73.312 128.478 73.152C128.211 72.992 127.891 72.912 127.518 72.912H124.302V71.312H127.246C127.726 71.312 128.11 71.1893 128.398 70.944C128.686 70.6987 128.83 70.336 128.83 69.856C128.83 69.376 128.686 69.0133 128.398 68.768C128.11 68.5227 127.726 68.4 127.246 68.4H124.302V66.8H127.294C128.051 66.8 128.681 66.9387 129.182 67.216C129.683 67.4933 130.057 67.8507 130.302 68.288C130.547 68.7253 130.67 69.1947 130.67 69.696C130.67 70.2827 130.505 70.8 130.174 71.248C129.854 71.696 129.379 72.0587 128.75 72.336L128.894 71.76C129.598 72.048 130.147 72.4533 130.542 72.976C130.937 73.4987 131.134 74.112 131.134 74.816C131.134 75.392 130.99 75.92 130.702 76.4C130.425 76.88 130.009 77.2693 129.454 77.568C128.91 77.856 128.238 78 127.438 78H124.302ZM123.038 78V66.8H124.878V78H123.038ZM136.092 78.16C135.207 78.16 134.455 78 133.836 77.68C133.218 77.36 132.663 76.8907 132.172 76.272L133.42 75.024C133.73 75.472 134.098 75.824 134.524 76.08C134.951 76.3253 135.495 76.448 136.156 76.448C136.775 76.448 137.266 76.32 137.628 76.064C138.002 75.808 138.188 75.456 138.188 75.008C138.188 74.6347 138.092 74.3307 137.9 74.096C137.708 73.8613 137.452 73.6693 137.132 73.52C136.823 73.36 136.476 73.2213 136.092 73.104C135.719 72.976 135.34 72.8373 134.956 72.688C134.583 72.528 134.236 72.3307 133.916 72.096C133.607 71.8613 133.356 71.5573 133.164 71.184C132.972 70.8107 132.876 70.336 132.876 69.76C132.876 69.0987 133.036 68.5387 133.356 68.08C133.687 67.6107 134.13 67.2533 134.684 67.008C135.239 66.7627 135.858 66.64 136.54 66.64C137.276 66.64 137.932 66.784 138.508 67.072C139.095 67.36 139.57 67.728 139.932 68.176L138.684 69.424C138.364 69.0613 138.028 68.7947 137.676 68.624C137.335 68.4427 136.94 68.352 136.492 68.352C135.938 68.352 135.5 68.464 135.18 68.688C134.871 68.912 134.716 69.2267 134.716 69.632C134.716 69.9733 134.812 70.2507 135.004 70.464C135.196 70.6667 135.447 70.8427 135.756 70.992C136.076 71.1307 136.423 71.264 136.796 71.392C137.18 71.52 137.559 71.664 137.932 71.824C138.316 71.984 138.663 72.192 138.972 72.448C139.292 72.6933 139.548 73.0133 139.74 73.408C139.932 73.8027 140.028 74.2987 140.028 74.896C140.028 75.8987 139.671 76.6933 138.956 77.28C138.252 77.8667 137.298 78.16 136.092 78.16ZM145.466 78V66.8H146.746L151.402 74.464H150.57L155.226 66.8H156.506V78H154.666V70.032L155.082 70.144L151.626 75.824H150.346L146.89 70.144L147.306 70.032V78H145.466ZM162.111 78.16C161.417 78.16 160.788 77.984 160.223 77.632C159.668 77.28 159.225 76.8053 158.895 76.208C158.575 75.6 158.415 74.9227 158.415 74.176C158.415 73.4187 158.575 72.7413 158.895 72.144C159.225 71.536 159.668 71.056 160.223 70.704C160.788 70.3413 161.417 70.16 162.111 70.16C162.697 70.16 163.215 70.288 163.663 70.544C164.121 70.7893 164.484 71.1307 164.751 71.568C165.017 72.0053 165.151 72.5013 165.151 73.056V75.264C165.151 75.8187 165.017 76.3147 164.751 76.752C164.495 77.1893 164.137 77.536 163.679 77.792C163.22 78.0373 162.697 78.16 162.111 78.16ZM162.399 76.496C163.049 76.496 163.572 76.2773 163.967 75.84C164.372 75.4027 164.575 74.8427 164.575 74.16C164.575 73.7013 164.484 73.296 164.303 72.944C164.121 72.592 163.865 72.32 163.535 72.128C163.215 71.9253 162.836 71.824 162.399 71.824C161.972 71.824 161.593 71.9253 161.263 72.128C160.943 72.32 160.687 72.592 160.495 72.944C160.313 73.296 160.223 73.7013 160.223 74.16C160.223 74.6187 160.313 75.024 160.495 75.376C160.687 75.728 160.943 76.0053 161.263 76.208C161.593 76.4 161.972 76.496 162.399 76.496ZM164.463 78V75.936L164.767 74.064L164.463 72.208V70.32H166.223V78H164.463ZM173.64 78V73.568C173.64 73.056 173.475 72.6347 173.144 72.304C172.824 71.9733 172.408 71.808 171.896 71.808C171.555 71.808 171.251 71.8827 170.984 72.032C170.717 72.1813 170.509 72.3893 170.36 72.656C170.211 72.9227 170.136 73.2267 170.136 73.568L169.448 73.184C169.448 72.5973 169.576 72.08 169.832 71.632C170.088 71.1733 170.44 70.816 170.888 70.56C171.347 70.2933 171.859 70.16 172.424 70.16C173 70.16 173.512 70.3093 173.96 70.608C174.408 70.896 174.76 71.2747 175.016 71.744C175.272 72.2027 175.4 72.6827 175.4 73.184V78H173.64ZM168.376 78V70.32H170.136V78H168.376ZM180.588 81.36C179.778 81.36 179.068 81.2107 178.46 80.912C177.852 80.624 177.362 80.2133 176.988 79.68L178.14 78.528C178.45 78.912 178.802 79.2 179.196 79.392C179.591 79.584 180.066 79.68 180.62 79.68C181.314 79.68 181.863 79.4987 182.268 79.136C182.674 78.784 182.876 78.2987 182.876 77.68V75.792L183.18 74.096L182.876 72.384V70.32H184.636V77.68C184.636 78.416 184.466 79.056 184.124 79.6C183.783 80.1547 183.308 80.5867 182.7 80.896C182.092 81.2053 181.388 81.36 180.588 81.36ZM180.508 77.84C179.826 77.84 179.207 77.6747 178.652 77.344C178.108 77.0027 177.676 76.5387 177.356 75.952C177.047 75.3653 176.892 74.7093 176.892 73.984C176.892 73.2587 177.047 72.608 177.356 72.032C177.676 71.456 178.108 71.0027 178.652 70.672C179.207 70.3307 179.826 70.16 180.508 70.16C181.116 70.16 181.65 70.2827 182.108 70.528C182.567 70.7733 182.924 71.1147 183.18 71.552C183.436 71.9787 183.564 72.48 183.564 73.056V74.944C183.564 75.5093 183.431 76.0107 183.164 76.448C182.908 76.8853 182.551 77.2267 182.092 77.472C181.634 77.7173 181.106 77.84 180.508 77.84ZM180.86 76.176C181.287 76.176 181.66 76.0853 181.98 75.904C182.3 75.7227 182.546 75.472 182.716 75.152C182.898 74.8213 182.988 74.4373 182.988 74C182.988 73.5627 182.898 73.184 182.716 72.864C182.546 72.5333 182.3 72.2773 181.98 72.096C181.66 71.9147 181.287 71.824 180.86 71.824C180.434 71.824 180.055 71.9147 179.724 72.096C179.404 72.2773 179.154 72.5333 178.972 72.864C178.791 73.184 178.7 73.5627 178.7 74C178.7 74.4267 178.791 74.8053 178.972 75.136C179.154 75.4667 179.404 75.7227 179.724 75.904C180.055 76.0853 180.434 76.176 180.86 76.176ZM190.008 78.16C189.314 78.16 188.685 77.984 188.12 77.632C187.565 77.28 187.122 76.8053 186.792 76.208C186.472 75.6 186.312 74.9227 186.312 74.176C186.312 73.4187 186.472 72.7413 186.792 72.144C187.122 71.536 187.565 71.056 188.12 70.704C188.685 70.3413 189.314 70.16 190.008 70.16C190.594 70.16 191.112 70.288 191.56 70.544C192.018 70.7893 192.381 71.1307 192.648 71.568C192.914 72.0053 193.048 72.5013 193.048 73.056V75.264C193.048 75.8187 192.914 76.3147 192.648 76.752C192.392 77.1893 192.034 77.536 191.576 77.792C191.117 78.0373 190.594 78.16 190.008 78.16ZM190.296 76.496C190.946 76.496 191.469 76.2773 191.864 75.84C192.269 75.4027 192.472 74.8427 192.472 74.16C192.472 73.7013 192.381 73.296 192.2 72.944C192.018 72.592 191.762 72.32 191.432 72.128C191.112 71.9253 190.733 71.824 190.296 71.824C189.869 71.824 189.49 71.9253 189.16 72.128C188.84 72.32 188.584 72.592 188.392 72.944C188.21 73.296 188.12 73.7013 188.12 74.16C188.12 74.6187 188.21 75.024 188.392 75.376C188.584 75.728 188.84 76.0053 189.16 76.208C189.49 76.4 189.869 76.496 190.296 76.496ZM192.36 78V75.936L192.664 74.064L192.36 72.208V70.32H194.12V78H192.36ZM196.273 78V66.48H198.033V78H196.273ZM203.712 78.16C202.965 78.16 202.288 77.984 201.68 77.632C201.072 77.2693 200.586 76.784 200.224 76.176C199.872 75.568 199.696 74.8907 199.696 74.144C199.696 73.3973 199.872 72.7253 200.224 72.128C200.586 71.5307 201.072 71.056 201.68 70.704C202.288 70.3413 202.965 70.16 203.712 70.16C204.469 70.16 205.152 70.336 205.76 70.688C206.368 71.04 206.848 71.52 207.2 72.128C207.562 72.7253 207.744 73.3973 207.744 74.144C207.744 74.8907 207.562 75.568 207.2 76.176C206.848 76.784 206.368 77.2693 205.76 77.632C205.152 77.984 204.469 78.16 203.712 78.16ZM203.712 76.464C204.149 76.464 204.533 76.368 204.864 76.176C205.205 75.9733 205.466 75.696 205.648 75.344C205.84 74.992 205.936 74.592 205.936 74.144C205.936 73.696 205.84 73.3013 205.648 72.96C205.456 72.6187 205.194 72.352 204.864 72.16C204.533 71.9573 204.149 71.856 203.712 71.856C203.285 71.856 202.901 71.9573 202.56 72.16C202.229 72.352 201.968 72.6187 201.776 72.96C201.594 73.3013 201.504 73.696 201.504 74.144C201.504 74.592 201.594 74.992 201.776 75.344C201.968 75.696 202.229 75.9733 202.56 76.176C202.901 76.368 203.285 76.464 203.712 76.464ZM209.407 78V70.32H211.167V78H209.407ZM211.167 73.728L210.559 73.424C210.559 72.4533 210.773 71.6693 211.199 71.072C211.637 70.464 212.293 70.16 213.167 70.16C213.551 70.16 213.898 70.2293 214.207 70.368C214.517 70.5067 214.805 70.7307 215.071 71.04L213.919 72.224C213.781 72.0747 213.626 71.968 213.455 71.904C213.285 71.84 213.087 71.808 212.863 71.808C212.373 71.808 211.967 71.9627 211.647 72.272C211.327 72.5813 211.167 73.0667 211.167 73.728ZM219.456 78.16C218.688 78.16 217.995 77.9893 217.376 77.648C216.768 77.296 216.283 76.816 215.92 76.208C215.568 75.6 215.392 74.9173 215.392 74.16C215.392 73.4027 215.568 72.7253 215.92 72.128C216.272 71.52 216.747 71.04 217.344 70.688C217.952 70.336 218.624 70.16 219.36 70.16C220.075 70.16 220.704 70.3253 221.248 70.656C221.803 70.9867 222.235 71.44 222.544 72.016C222.864 72.592 223.024 73.248 223.024 73.984C223.024 74.112 223.014 74.2453 222.992 74.384C222.982 74.512 222.96 74.656 222.928 74.816H216.624V73.376H222.016L221.36 73.952C221.339 73.4827 221.248 73.088 221.088 72.768C220.928 72.448 220.699 72.2027 220.4 72.032C220.112 71.8613 219.755 71.776 219.328 71.776C218.88 71.776 218.491 71.872 218.16 72.064C217.83 72.256 217.574 72.528 217.392 72.88C217.211 73.2213 217.12 73.632 217.12 74.112C217.12 74.592 217.216 75.0133 217.408 75.376C217.6 75.7387 217.872 76.0213 218.224 76.224C218.576 76.416 218.982 76.512 219.44 76.512C219.835 76.512 220.198 76.4427 220.528 76.304C220.87 76.1653 221.158 75.9627 221.392 75.696L222.512 76.832C222.139 77.2693 221.686 77.6 221.152 77.824C220.619 78.048 220.054 78.16 219.456 78.16Z" fill="#343A40"/>
<path d="M16.8089 110V98.896H18.3129V110H16.8089ZM17.8329 110V108.624H23.7849V110H17.8329ZM28.7249 110.16C27.9782 110.16 27.3062 109.984 26.7089 109.632C26.1115 109.28 25.6369 108.805 25.2849 108.208C24.9329 107.6 24.7569 106.923 24.7569 106.176C24.7569 105.44 24.9329 104.779 25.2849 104.192C25.6369 103.595 26.1115 103.12 26.7089 102.768C27.3062 102.416 27.9782 102.24 28.7249 102.24C29.4609 102.24 30.1275 102.416 30.7249 102.768C31.3329 103.109 31.8129 103.579 32.1649 104.176C32.5169 104.773 32.6929 105.44 32.6929 106.176C32.6929 106.923 32.5169 107.6 32.1649 108.208C31.8129 108.805 31.3329 109.28 30.7249 109.632C30.1275 109.984 29.4609 110.16 28.7249 110.16ZM28.7249 108.768C29.2049 108.768 29.6315 108.656 30.0049 108.432C30.3782 108.208 30.6715 107.904 30.8849 107.52C31.0982 107.125 31.2049 106.677 31.2049 106.176C31.2049 105.685 31.0929 105.248 30.8689 104.864C30.6555 104.48 30.3622 104.181 29.9889 103.968C29.6262 103.744 29.2049 103.632 28.7249 103.632C28.2449 103.632 27.8182 103.744 27.4449 103.968C27.0715 104.181 26.7782 104.48 26.5649 104.864C26.3515 105.248 26.2449 105.685 26.2449 106.176C26.2449 106.677 26.3515 107.125 26.5649 107.52C26.7782 107.904 27.0715 108.208 27.4449 108.432C27.8182 108.656 28.2449 108.768 28.7249 108.768ZM34.5154 110V102.4H35.9554V110H34.5154ZM35.9554 105.664L35.4114 105.424C35.4114 104.453 35.6354 103.68 36.0834 103.104C36.5314 102.528 37.1767 102.24 38.0194 102.24C38.4034 102.24 38.75 102.309 39.0594 102.448C39.3687 102.576 39.6567 102.795 39.9234 103.104L38.9794 104.08C38.8194 103.909 38.6434 103.787 38.4514 103.712C38.2594 103.637 38.0354 103.6 37.7794 103.6C37.246 103.6 36.8087 103.771 36.4674 104.112C36.126 104.453 35.9554 104.971 35.9554 105.664ZM44.4072 110.16C43.6499 110.16 42.9672 109.989 42.3592 109.648C41.7512 109.296 41.2712 108.821 40.9192 108.224C40.5672 107.627 40.3912 106.949 40.3912 106.192C40.3912 105.445 40.5619 104.773 40.9032 104.176C41.2552 103.579 41.7246 103.109 42.3112 102.768C42.9086 102.416 43.5752 102.24 44.3112 102.24C45.0152 102.24 45.6339 102.4 46.1672 102.72C46.7112 103.04 47.1326 103.483 47.4312 104.048C47.7406 104.613 47.8952 105.253 47.8952 105.968C47.8952 106.075 47.8899 106.192 47.8792 106.32C47.8686 106.437 47.8472 106.576 47.8152 106.736H41.3992V105.536H47.0472L46.5192 106C46.5192 105.488 46.4286 105.056 46.2472 104.704C46.0659 104.341 45.8099 104.064 45.4792 103.872C45.1486 103.669 44.7486 103.568 44.2792 103.568C43.7886 103.568 43.3566 103.675 42.9832 103.888C42.6099 104.101 42.3219 104.4 42.1192 104.784C41.9166 105.168 41.8152 105.621 41.8152 106.144C41.8152 106.677 41.9219 107.147 42.1352 107.552C42.3486 107.947 42.6526 108.256 43.0472 108.48C43.4419 108.693 43.8952 108.8 44.4072 108.8C44.8339 108.8 45.2232 108.725 45.5752 108.576C45.9379 108.427 46.2472 108.203 46.5032 107.904L47.4312 108.848C47.0686 109.275 46.6206 109.6 46.0872 109.824C45.5646 110.048 45.0046 110.16 44.4072 110.16ZM49.6654 110V102.4H51.1054V110H49.6654ZM54.8014 110V105.408C54.8014 104.843 54.6254 104.4 54.2734 104.08C53.932 103.749 53.5 103.584 52.9774 103.584C52.6254 103.584 52.3107 103.659 52.0334 103.808C51.756 103.957 51.532 104.165 51.3614 104.432C51.1907 104.699 51.1054 105.019 51.1054 105.392L50.5134 105.104C50.5134 104.528 50.636 104.027 50.8814 103.6C51.1374 103.173 51.484 102.843 51.9214 102.608C52.3587 102.363 52.8494 102.24 53.3934 102.24C53.9267 102.24 54.4067 102.357 54.8334 102.592C55.2707 102.827 55.612 103.157 55.8574 103.584C56.1134 104.011 56.2414 104.517 56.2414 105.104V110H54.8014ZM59.9374 110V105.408C59.9374 104.843 59.7614 104.4 59.4094 104.08C59.068 103.749 58.6414 103.584 58.1294 103.584C57.7774 103.584 57.4574 103.659 57.1694 103.808C56.892 103.957 56.668 104.165 56.4974 104.432C56.3267 104.699 56.2414 105.019 56.2414 105.392L55.4254 105.104C55.4574 104.517 55.612 104.016 55.8894 103.6C56.1774 103.173 56.5454 102.843 56.9934 102.608C57.4414 102.363 57.932 102.24 58.4654 102.24C59.02 102.24 59.516 102.357 59.9534 102.592C60.3907 102.827 60.7374 103.157 60.9934 103.584C61.26 104.011 61.3934 104.523 61.3934 105.12V110H59.9374ZM67.097 110V102.4H68.537V110H67.097ZM67.817 100.88C67.5503 100.88 67.3317 100.795 67.161 100.624C66.9903 100.443 66.905 100.219 66.905 99.952C66.905 99.696 66.9903 99.4827 67.161 99.312C67.3317 99.1307 67.5503 99.04 67.817 99.04C68.0837 99.04 68.3023 99.1307 68.473 99.312C68.6437 99.4827 68.729 99.696 68.729 99.952C68.729 100.219 68.6437 100.443 68.473 100.624C68.3023 100.795 68.0837 100.88 67.817 100.88ZM74.8591 110.16C74.2831 110.16 73.7605 110.043 73.2911 109.808C72.8325 109.563 72.4645 109.227 72.1871 108.8C71.9098 108.373 71.7551 107.888 71.7231 107.344V105.056C71.7551 104.501 71.9098 104.016 72.1871 103.6C72.4751 103.173 72.8485 102.843 73.3071 102.608C73.7765 102.363 74.2938 102.24 74.8591 102.24C75.5525 102.24 76.1765 102.416 76.7311 102.768C77.2965 103.12 77.7391 103.595 78.0591 104.192C78.3791 104.789 78.5391 105.461 78.5391 106.208C78.5391 106.955 78.3791 107.627 78.0591 108.224C77.7391 108.821 77.2965 109.296 76.7311 109.648C76.1765 109.989 75.5525 110.16 74.8591 110.16ZM74.6191 108.8C75.0991 108.8 75.5205 108.688 75.8831 108.464C76.2458 108.24 76.5338 107.936 76.7471 107.552C76.9605 107.157 77.0671 106.704 77.0671 106.192C77.0671 105.691 76.9605 105.243 76.7471 104.848C76.5338 104.453 76.2458 104.149 75.8831 103.936C75.5205 103.712 75.1045 103.6 74.6351 103.6C74.1551 103.6 73.7338 103.712 73.3711 103.936C73.0085 104.149 72.7258 104.453 72.5231 104.848C72.3205 105.243 72.2191 105.696 72.2191 106.208C72.2191 106.709 72.3151 107.157 72.5071 107.552C72.7098 107.936 72.9925 108.24 73.3551 108.464C73.7285 108.688 74.1498 108.8 74.6191 108.8ZM70.8591 113.184V102.4H72.2991V104.4L72.0271 106.24L72.2991 108.096V113.184H70.8591ZM82.7876 110.16C82.361 110.16 81.9556 110.107 81.5716 110C81.1983 109.883 80.8516 109.723 80.5316 109.52C80.2116 109.307 79.9343 109.056 79.6996 108.768L80.6276 107.84C80.905 108.181 81.225 108.437 81.5876 108.608C81.9503 108.768 82.3556 108.848 82.8036 108.848C83.2516 108.848 83.5983 108.773 83.8436 108.624C84.089 108.464 84.2116 108.245 84.2116 107.968C84.2116 107.691 84.1103 107.477 83.9076 107.328C83.7156 107.168 83.465 107.04 83.1556 106.944C82.8463 106.837 82.5156 106.736 82.1636 106.64C81.8223 106.533 81.497 106.4 81.1876 106.24C80.8783 106.08 80.6223 105.861 80.4196 105.584C80.2276 105.307 80.1316 104.939 80.1316 104.48C80.1316 104.021 80.2436 103.627 80.4676 103.296C80.6916 102.955 81.001 102.693 81.3956 102.512C81.801 102.331 82.2863 102.24 82.8516 102.24C83.449 102.24 83.977 102.347 84.4356 102.56C84.905 102.763 85.289 103.072 85.5876 103.488L84.6596 104.416C84.4463 104.139 84.1796 103.925 83.8596 103.776C83.5503 103.627 83.1983 103.552 82.8036 103.552C82.3876 103.552 82.0676 103.627 81.8436 103.776C81.6303 103.915 81.5236 104.112 81.5236 104.368C81.5236 104.624 81.6196 104.821 81.8116 104.96C82.0036 105.099 82.2543 105.216 82.5636 105.312C82.8836 105.408 83.2143 105.509 83.5556 105.616C83.897 105.712 84.2223 105.845 84.5316 106.016C84.841 106.187 85.0916 106.416 85.2836 106.704C85.4863 106.992 85.5876 107.371 85.5876 107.84C85.5876 108.555 85.3316 109.12 84.8196 109.536C84.3183 109.952 83.641 110.16 82.7876 110.16ZM90.4557 110.16C89.8371 110.16 89.2771 110.021 88.7758 109.744C88.2851 109.456 87.9011 109.061 87.6238 108.56C87.3464 108.059 87.2078 107.477 87.2078 106.816V102.4H88.6478V106.752C88.6478 107.168 88.7171 107.531 88.8558 107.84C89.0051 108.139 89.2184 108.368 89.4958 108.528C89.7731 108.688 90.0984 108.768 90.4718 108.768C91.0371 108.768 91.4798 108.592 91.7998 108.24C92.1198 107.877 92.2798 107.381 92.2798 106.752V102.4H93.7198V106.816C93.7198 107.477 93.5811 108.059 93.3038 108.56C93.0264 109.061 92.6424 109.456 92.1518 109.744C91.6718 110.021 91.1064 110.16 90.4557 110.16ZM95.8497 110V102.4H97.2897V110H95.8497ZM100.986 110V105.408C100.986 104.843 100.81 104.4 100.458 104.08C100.116 103.749 99.6844 103.584 99.1617 103.584C98.8097 103.584 98.4951 103.659 98.2177 103.808C97.9404 103.957 97.7164 104.165 97.5457 104.432C97.3751 104.699 97.2897 105.019 97.2897 105.392L96.6977 105.104C96.6977 104.528 96.8204 104.027 97.0657 103.6C97.3217 103.173 97.6684 102.843 98.1057 102.608C98.5431 102.363 99.0337 102.24 99.5777 102.24C100.111 102.24 100.591 102.357 101.018 102.592C101.455 102.827 101.796 103.157 102.042 103.584C102.298 104.011 102.426 104.517 102.426 105.104V110H100.986ZM106.122 110V105.408C106.122 104.843 105.946 104.4 105.594 104.08C105.252 103.749 104.826 103.584 104.314 103.584C103.962 103.584 103.642 103.659 103.354 103.808C103.076 103.957 102.852 104.165 102.682 104.432C102.511 104.699 102.426 105.019 102.426 105.392L101.61 105.104C101.642 104.517 101.796 104.016 102.074 103.6C102.362 103.173 102.73 102.843 103.178 102.608C103.626 102.363 104.116 102.24 104.65 102.24C105.204 102.24 105.7 102.357 106.138 102.592C106.575 102.827 106.922 103.157 107.178 103.584C107.444 104.011 107.578 104.523 107.578 105.12V110H106.122ZM116.481 110.16C115.777 110.16 115.148 109.989 114.593 109.648C114.039 109.296 113.596 108.821 113.265 108.224C112.945 107.627 112.785 106.955 112.785 106.208C112.785 105.461 112.945 104.789 113.265 104.192C113.596 103.595 114.039 103.12 114.593 102.768C115.148 102.416 115.777 102.24 116.481 102.24C117.047 102.24 117.559 102.363 118.017 102.608C118.476 102.843 118.844 103.173 119.121 103.6C119.409 104.016 119.569 104.501 119.601 105.056V107.344C119.569 107.888 119.415 108.373 119.137 108.8C118.86 109.227 118.492 109.563 118.033 109.808C117.575 110.043 117.057 110.16 116.481 110.16ZM116.721 108.8C117.201 108.8 117.617 108.688 117.969 108.464C118.332 108.24 118.615 107.936 118.817 107.552C119.02 107.157 119.121 106.709 119.121 106.208C119.121 105.685 119.015 105.232 118.801 104.848C118.599 104.464 118.316 104.16 117.953 103.936C117.601 103.712 117.185 103.6 116.705 103.6C116.225 103.6 115.804 103.712 115.441 103.936C115.079 104.16 114.791 104.469 114.577 104.864C114.375 105.248 114.273 105.691 114.273 106.192C114.273 106.704 114.375 107.157 114.577 107.552C114.791 107.936 115.079 108.24 115.441 108.464C115.815 108.688 116.241 108.8 116.721 108.8ZM120.481 110H119.025V107.952L119.297 106.096L119.025 104.256V98.576H120.481V110ZM126.25 110.16C125.503 110.16 124.831 109.984 124.234 109.632C123.637 109.28 123.162 108.805 122.81 108.208C122.458 107.6 122.282 106.923 122.282 106.176C122.282 105.44 122.458 104.779 122.81 104.192C123.162 103.595 123.637 103.12 124.234 102.768C124.831 102.416 125.503 102.24 126.25 102.24C126.986 102.24 127.653 102.416 128.25 102.768C128.858 103.109 129.338 103.579 129.69 104.176C130.042 104.773 130.218 105.44 130.218 106.176C130.218 106.923 130.042 107.6 129.69 108.208C129.338 108.805 128.858 109.28 128.25 109.632C127.653 109.984 126.986 110.16 126.25 110.16ZM126.25 108.768C126.73 108.768 127.157 108.656 127.53 108.432C127.903 108.208 128.197 107.904 128.41 107.52C128.623 107.125 128.73 106.677 128.73 106.176C128.73 105.685 128.618 105.248 128.394 104.864C128.181 104.48 127.887 104.181 127.514 103.968C127.151 103.744 126.73 103.632 126.25 103.632C125.77 103.632 125.343 103.744 124.97 103.968C124.597 104.181 124.303 104.48 124.09 104.864C123.877 105.248 123.77 105.685 123.77 106.176C123.77 106.677 123.877 107.125 124.09 107.52C124.303 107.904 124.597 108.208 124.97 108.432C125.343 108.656 125.77 108.768 126.25 108.768ZM132.04 110V98.576H133.48V110H132.04ZM139.259 110.16C138.513 110.16 137.841 109.984 137.243 109.632C136.646 109.28 136.171 108.805 135.819 108.208C135.467 107.6 135.291 106.923 135.291 106.176C135.291 105.44 135.467 104.779 135.819 104.192C136.171 103.595 136.646 103.12 137.243 102.768C137.841 102.416 138.513 102.24 139.259 102.24C139.995 102.24 140.662 102.416 141.259 102.768C141.867 103.109 142.347 103.579 142.699 104.176C143.051 104.773 143.227 105.44 143.227 106.176C143.227 106.923 143.051 107.6 142.699 108.208C142.347 108.805 141.867 109.28 141.259 109.632C140.662 109.984 139.995 110.16 139.259 110.16ZM139.259 108.768C139.739 108.768 140.166 108.656 140.539 108.432C140.913 108.208 141.206 107.904 141.419 107.52C141.633 107.125 141.739 106.677 141.739 106.176C141.739 105.685 141.627 105.248 141.403 104.864C141.19 104.48 140.897 104.181 140.523 103.968C140.161 103.744 139.739 103.632 139.259 103.632C138.779 103.632 138.353 103.744 137.979 103.968C137.606 104.181 137.313 104.48 137.099 104.864C136.886 105.248 136.779 105.685 136.779 106.176C136.779 106.677 136.886 107.125 137.099 107.52C137.313 107.904 137.606 108.208 137.979 108.432C138.353 108.656 138.779 108.768 139.259 108.768ZM145.05 110V102.4H146.49V110H145.05ZM146.49 105.664L145.946 105.424C145.946 104.453 146.17 103.68 146.618 103.104C147.066 102.528 147.711 102.24 148.554 102.24C148.938 102.24 149.284 102.309 149.594 102.448C149.903 102.576 150.191 102.795 150.458 103.104L149.514 104.08C149.354 103.909 149.178 103.787 148.986 103.712C148.794 103.637 148.57 103.6 148.314 103.6C147.78 103.6 147.343 103.771 147.002 104.112C146.66 104.453 146.49 104.971 146.49 105.664ZM157.897 110.16C157.47 110.16 157.065 110.107 156.681 110C156.308 109.883 155.961 109.723 155.641 109.52C155.321 109.307 155.044 109.056 154.809 108.768L155.737 107.84C156.014 108.181 156.334 108.437 156.697 108.608C157.06 108.768 157.465 108.848 157.913 108.848C158.361 108.848 158.708 108.773 158.953 108.624C159.198 108.464 159.321 108.245 159.321 107.968C159.321 107.691 159.22 107.477 159.017 107.328C158.825 107.168 158.574 107.04 158.265 106.944C157.956 106.837 157.625 106.736 157.273 106.64C156.932 106.533 156.606 106.4 156.297 106.24C155.988 106.08 155.732 105.861 155.529 105.584C155.337 105.307 155.241 104.939 155.241 104.48C155.241 104.021 155.353 103.627 155.577 103.296C155.801 102.955 156.11 102.693 156.505 102.512C156.91 102.331 157.396 102.24 157.961 102.24C158.558 102.24 159.086 102.347 159.545 102.56C160.014 102.763 160.398 103.072 160.697 103.488L159.769 104.416C159.556 104.139 159.289 103.925 158.969 103.776C158.66 103.627 158.308 103.552 157.913 103.552C157.497 103.552 157.177 103.627 156.953 103.776C156.74 103.915 156.633 104.112 156.633 104.368C156.633 104.624 156.729 104.821 156.921 104.96C157.113 105.099 157.364 105.216 157.673 105.312C157.993 105.408 158.324 105.509 158.665 105.616C159.006 105.712 159.332 105.845 159.641 106.016C159.95 106.187 160.201 106.416 160.393 106.704C160.596 106.992 160.697 107.371 160.697 107.84C160.697 108.555 160.441 109.12 159.929 109.536C159.428 109.952 158.75 110.16 157.897 110.16ZM162.525 110V102.4H163.965V110H162.525ZM163.245 100.88C162.978 100.88 162.76 100.795 162.589 100.624C162.418 100.443 162.333 100.219 162.333 99.952C162.333 99.696 162.418 99.4827 162.589 99.312C162.76 99.1307 162.978 99.04 163.245 99.04C163.512 99.04 163.73 99.1307 163.901 99.312C164.072 99.4827 164.157 99.696 164.157 99.952C164.157 100.219 164.072 100.443 163.901 100.624C163.73 100.795 163.512 100.88 163.245 100.88ZM167.455 110V99.216H168.895V110H167.455ZM165.583 103.712V102.4H170.767V103.712H165.583ZM179.138 110.16C178.445 110.16 177.815 109.989 177.25 109.648C176.685 109.296 176.237 108.821 175.906 108.224C175.586 107.627 175.426 106.955 175.426 106.208C175.426 105.461 175.586 104.789 175.906 104.192C176.237 103.595 176.679 103.12 177.234 102.768C177.799 102.416 178.434 102.24 179.138 102.24C179.714 102.24 180.226 102.363 180.674 102.608C181.133 102.843 181.501 103.173 181.778 103.6C182.055 104.016 182.21 104.501 182.242 105.056V107.344C182.21 107.888 182.055 108.373 181.778 108.8C181.511 109.227 181.149 109.563 180.69 109.808C180.242 110.043 179.725 110.16 179.138 110.16ZM179.378 108.8C180.093 108.8 180.669 108.56 181.106 108.08C181.543 107.589 181.762 106.965 181.762 106.208C181.762 105.685 181.661 105.232 181.458 104.848C181.266 104.453 180.989 104.149 180.626 103.936C180.263 103.712 179.842 103.6 179.362 103.6C178.882 103.6 178.455 103.712 178.082 103.936C177.719 104.16 177.431 104.469 177.218 104.864C177.015 105.248 176.914 105.691 176.914 106.192C176.914 106.704 177.015 107.157 177.218 107.552C177.431 107.936 177.725 108.24 178.098 108.464C178.471 108.688 178.898 108.8 179.378 108.8ZM181.666 110V107.952L181.938 106.096L181.666 104.256V102.4H183.122V110H181.666ZM185.419 110V102.4H186.859V110H185.419ZM190.555 110V105.408C190.555 104.843 190.379 104.4 190.027 104.08C189.685 103.749 189.253 103.584 188.731 103.584C188.379 103.584 188.064 103.659 187.787 103.808C187.509 103.957 187.285 104.165 187.115 104.432C186.944 104.699 186.859 105.019 186.859 105.392L186.267 105.104C186.267 104.528 186.389 104.027 186.635 103.6C186.891 103.173 187.237 102.843 187.675 102.608C188.112 102.363 188.603 102.24 189.147 102.24C189.68 102.24 190.16 102.357 190.587 102.592C191.024 102.827 191.365 103.157 191.611 103.584C191.867 104.011 191.995 104.517 191.995 105.104V110H190.555ZM195.691 110V105.408C195.691 104.843 195.515 104.4 195.163 104.08C194.821 103.749 194.395 103.584 193.883 103.584C193.531 103.584 193.211 103.659 192.923 103.808C192.645 103.957 192.421 104.165 192.251 104.432C192.08 104.699 191.995 105.019 191.995 105.392L191.179 105.104C191.211 104.517 191.365 104.016 191.643 103.6C191.931 103.173 192.299 102.843 192.747 102.608C193.195 102.363 193.685 102.24 194.219 102.24C194.773 102.24 195.269 102.357 195.707 102.592C196.144 102.827 196.491 103.157 196.747 103.584C197.013 104.011 197.147 104.523 197.147 105.12V110H195.691ZM202.826 110.16C202.069 110.16 201.386 109.989 200.778 109.648C200.17 109.296 199.69 108.821 199.338 108.224C198.986 107.627 198.81 106.949 198.81 106.192C198.81 105.445 198.981 104.773 199.322 104.176C199.674 103.579 200.143 103.109 200.73 102.768C201.327 102.416 201.994 102.24 202.73 102.24C203.434 102.24 204.053 102.4 204.586 102.72C205.13 103.04 205.551 103.483 205.85 104.048C206.159 104.613 206.314 105.253 206.314 105.968C206.314 106.075 206.309 106.192 206.298 106.32C206.287 106.437 206.266 106.576 206.234 106.736H199.818V105.536H205.466L204.938 106C204.938 105.488 204.847 105.056 204.666 104.704C204.485 104.341 204.229 104.064 203.898 103.872C203.567 103.669 203.167 103.568 202.698 103.568C202.207 103.568 201.775 103.675 201.402 103.888C201.029 104.101 200.741 104.4 200.538 104.784C200.335 105.168 200.234 105.621 200.234 106.144C200.234 106.677 200.341 107.147 200.554 107.552C200.767 107.947 201.071 108.256 201.466 108.48C201.861 108.693 202.314 108.8 202.826 108.8C203.253 108.8 203.642 108.725 203.994 108.576C204.357 108.427 204.666 108.203 204.922 107.904L205.85 108.848C205.487 109.275 205.039 109.6 204.506 109.824C203.983 110.048 203.423 110.16 202.826 110.16ZM209.018 110V99.216H210.458V110H209.018ZM207.146 103.712V102.4H212.33V103.712H207.146ZM220.94 110.16C220.194 110.16 219.516 109.984 218.908 109.632C218.311 109.28 217.836 108.805 217.484 108.208C217.143 107.6 216.972 106.928 216.972 106.192C216.972 105.445 217.143 104.773 217.484 104.176C217.836 103.579 218.311 103.109 218.908 102.768C219.516 102.416 220.194 102.24 220.94 102.24C221.527 102.24 222.071 102.352 222.572 102.576C223.074 102.789 223.506 103.104 223.868 103.52L222.908 104.48C222.674 104.203 222.386 103.995 222.044 103.856C221.714 103.707 221.346 103.632 220.94 103.632C220.46 103.632 220.034 103.744 219.66 103.968C219.287 104.181 218.994 104.48 218.78 104.864C218.567 105.248 218.46 105.691 218.46 106.192C218.46 106.693 218.567 107.136 218.78 107.52C218.994 107.904 219.287 108.208 219.66 108.432C220.034 108.656 220.46 108.768 220.94 108.768C221.346 108.768 221.714 108.699 222.044 108.56C222.386 108.411 222.679 108.197 222.924 107.92L223.868 108.88C223.516 109.285 223.084 109.6 222.572 109.824C222.071 110.048 221.527 110.16 220.94 110.16ZM228.812 110.16C228.066 110.16 227.394 109.984 226.796 109.632C226.199 109.28 225.724 108.805 225.372 108.208C225.02 107.6 224.844 106.923 224.844 106.176C224.844 105.44 225.02 104.779 225.372 104.192C225.724 103.595 226.199 103.12 226.796 102.768C227.394 102.416 228.066 102.24 228.812 102.24C229.548 102.24 230.215 102.416 230.812 102.768C231.42 103.109 231.9 103.579 232.252 104.176C232.604 104.773 232.78 105.44 232.78 106.176C232.78 106.923 232.604 107.6 232.252 108.208C231.9 108.805 231.42 109.28 230.812 109.632C230.215 109.984 229.548 110.16 228.812 110.16ZM228.812 108.768C229.292 108.768 229.719 108.656 230.092 108.432C230.466 108.208 230.759 107.904 230.972 107.52C231.186 107.125 231.292 106.677 231.292 106.176C231.292 105.685 231.18 105.248 230.956 104.864C230.743 104.48 230.45 104.181 230.076 103.968C229.714 103.744 229.292 103.632 228.812 103.632C228.332 103.632 227.906 103.744 227.532 103.968C227.159 104.181 226.866 104.48 226.652 104.864C226.439 105.248 226.332 105.685 226.332 106.176C226.332 106.677 226.439 107.125 226.652 107.52C226.866 107.904 227.159 108.208 227.532 108.432C227.906 108.656 228.332 108.768 228.812 108.768ZM239.979 110V105.568C239.979 104.992 239.798 104.517 239.435 104.144C239.072 103.771 238.603 103.584 238.027 103.584C237.643 103.584 237.302 103.669 237.003 103.84C236.704 104.011 236.47 104.245 236.299 104.544C236.128 104.843 236.043 105.184 236.043 105.568L235.451 105.232C235.451 104.656 235.579 104.144 235.835 103.696C236.091 103.248 236.448 102.896 236.907 102.64C237.366 102.373 237.883 102.24 238.459 102.24C239.035 102.24 239.542 102.384 239.979 102.672C240.427 102.96 240.779 103.339 241.035 103.808C241.291 104.267 241.419 104.757 241.419 105.28V110H239.979ZM234.603 110V102.4H236.043V110H234.603ZM245.984 110.16C245.558 110.16 245.152 110.107 244.768 110C244.395 109.883 244.048 109.723 243.728 109.52C243.408 109.307 243.131 109.056 242.896 108.768L243.824 107.84C244.102 108.181 244.422 108.437 244.784 108.608C245.147 108.768 245.552 108.848 246 108.848C246.448 108.848 246.795 108.773 247.04 108.624C247.286 108.464 247.408 108.245 247.408 107.968C247.408 107.691 247.307 107.477 247.104 107.328C246.912 107.168 246.662 107.04 246.352 106.944C246.043 106.837 245.712 106.736 245.36 106.64C245.019 106.533 244.694 106.4 244.384 106.24C244.075 106.08 243.819 105.861 243.616 105.584C243.424 105.307 243.328 104.939 243.328 104.48C243.328 104.021 243.44 103.627 243.664 103.296C243.888 102.955 244.198 102.693 244.592 102.512C244.998 102.331 245.483 102.24 246.048 102.24C246.646 102.24 247.174 102.347 247.632 102.56C248.102 102.763 248.486 103.072 248.784 103.488L247.856 104.416C247.643 104.139 247.376 103.925 247.056 103.776C246.747 103.627 246.395 103.552 246 103.552C245.584 103.552 245.264 103.627 245.04 103.776C244.827 103.915 244.72 104.112 244.72 104.368C244.72 104.624 244.816 104.821 245.008 104.96C245.2 105.099 245.451 105.216 245.76 105.312C246.08 105.408 246.411 105.509 246.752 105.616C247.094 105.712 247.419 105.845 247.728 106.016C248.038 106.187 248.288 106.416 248.48 106.704C248.683 106.992 248.784 107.371 248.784 107.84C248.784 108.555 248.528 109.12 248.016 109.536C247.515 109.952 246.838 110.16 245.984 110.16ZM254.117 110.16C253.359 110.16 252.677 109.989 252.069 109.648C251.461 109.296 250.981 108.821 250.629 108.224C250.277 107.627 250.101 106.949 250.101 106.192C250.101 105.445 250.271 104.773 250.613 104.176C250.965 103.579 251.434 103.109 252.021 102.768C252.618 102.416 253.285 102.24 254.021 102.24C254.725 102.24 255.343 102.4 255.877 102.72C256.421 103.04 256.842 103.483 257.141 104.048C257.45 104.613 257.605 105.253 257.605 105.968C257.605 106.075 257.599 106.192 257.589 106.32C257.578 106.437 257.557 106.576 257.525 106.736H251.109V105.536H256.757L256.229 106C256.229 105.488 256.138 105.056 255.957 104.704C255.775 104.341 255.519 104.064 255.189 103.872C254.858 103.669 254.458 103.568 253.989 103.568C253.498 103.568 253.066 103.675 252.693 103.888C252.319 104.101 252.031 104.4 251.829 104.784C251.626 105.168 251.525 105.621 251.525 106.144C251.525 106.677 251.631 107.147 251.845 107.552C252.058 107.947 252.362 108.256 252.757 108.48C253.151 108.693 253.605 108.8 254.117 108.8C254.543 108.8 254.933 108.725 255.285 108.576C255.647 108.427 255.957 108.203 256.213 107.904L257.141 108.848C256.778 109.275 256.33 109.6 255.797 109.824C255.274 110.048 254.714 110.16 254.117 110.16ZM262.847 110.16C262.1 110.16 261.423 109.984 260.815 109.632C260.217 109.28 259.743 108.805 259.391 108.208C259.049 107.6 258.879 106.928 258.879 106.192C258.879 105.445 259.049 104.773 259.391 104.176C259.743 103.579 260.217 103.109 260.815 102.768C261.423 102.416 262.1 102.24 262.847 102.24C263.433 102.24 263.977 102.352 264.479 102.576C264.98 102.789 265.412 103.104 265.775 103.52L264.815 104.48C264.58 104.203 264.292 103.995 263.951 103.856C263.62 103.707 263.252 103.632 262.847 103.632C262.367 103.632 261.94 103.744 261.567 103.968C261.193 104.181 260.9 104.48 260.687 104.864C260.473 105.248 260.367 105.691 260.367 106.192C260.367 106.693 260.473 107.136 260.687 107.52C260.9 107.904 261.193 108.208 261.567 108.432C261.94 108.656 262.367 108.768 262.847 108.768C263.252 108.768 263.62 108.699 263.951 108.56C264.292 108.411 264.585 108.197 264.831 107.92L265.775 108.88C265.423 109.285 264.991 109.6 264.479 109.824C263.977 110.048 263.433 110.16 262.847 110.16ZM268.477 110V99.216H269.917V110H268.477ZM266.605 103.712V102.4H271.789V103.712H266.605ZM276.685 110.16C275.928 110.16 275.245 109.989 274.637 109.648C274.029 109.296 273.549 108.821 273.197 108.224C272.845 107.627 272.669 106.949 272.669 106.192C272.669 105.445 272.84 104.773 273.181 104.176C273.533 103.579 274.003 103.109 274.589 102.768C275.187 102.416 275.853 102.24 276.589 102.24C277.293 102.24 277.912 102.4 278.445 102.72C278.989 103.04 279.411 103.483 279.709 104.048C280.019 104.613 280.173 105.253 280.173 105.968C280.173 106.075 280.168 106.192 280.157 106.32C280.147 106.437 280.125 106.576 280.093 106.736H273.677V105.536H279.325L278.797 106C278.797 105.488 278.707 105.056 278.525 104.704C278.344 104.341 278.088 104.064 277.757 103.872C277.427 103.669 277.027 103.568 276.557 103.568C276.067 103.568 275.635 103.675 275.261 103.888C274.888 104.101 274.6 104.4 274.397 104.784C274.195 105.168 274.093 105.621 274.093 106.144C274.093 106.677 274.2 107.147 274.413 107.552C274.627 107.947 274.931 108.256 275.325 108.48C275.72 108.693 276.173 108.8 276.685 108.8C277.112 108.8 277.501 108.725 277.853 108.576C278.216 108.427 278.525 108.203 278.781 107.904L279.709 108.848C279.347 109.275 278.899 109.6 278.365 109.824C277.843 110.048 277.283 110.16 276.685 110.16ZM282.877 110V99.216H284.317V110H282.877ZM281.005 103.712V102.4H286.189V103.712H281.005ZM290.856 110.16C290.237 110.16 289.677 110.021 289.176 109.744C288.685 109.456 288.301 109.061 288.024 108.56C287.746 108.059 287.608 107.477 287.608 106.816V102.4H289.048V106.752C289.048 107.168 289.117 107.531 289.256 107.84C289.405 108.139 289.618 108.368 289.896 108.528C290.173 108.688 290.498 108.768 290.872 108.768C291.437 108.768 291.88 108.592 292.2 108.24C292.52 107.877 292.68 107.381 292.68 106.752V102.4H294.12V106.816C294.12 107.477 293.981 108.059 293.704 108.56C293.426 109.061 293.042 109.456 292.552 109.744C292.072 110.021 291.506 110.16 290.856 110.16ZM296.25 110V102.4H297.69V110H296.25ZM297.69 105.664L297.146 105.424C297.146 104.453 297.37 103.68 297.818 103.104C298.266 102.528 298.911 102.24 299.754 102.24C300.138 102.24 300.484 102.309 300.794 102.448C301.103 102.576 301.391 102.795 301.658 103.104L300.714 104.08C300.554 103.909 300.378 103.787 300.186 103.712C299.994 103.637 299.77 103.6 299.514 103.6C298.98 103.6 298.543 103.771 298.202 104.112C297.86 104.453 297.69 104.971 297.69 105.664ZM303.182 110.16C302.884 110.16 302.633 110.059 302.43 109.856C302.238 109.643 302.142 109.392 302.142 109.104C302.142 108.805 302.238 108.56 302.43 108.368C302.633 108.165 302.884 108.064 303.182 108.064C303.481 108.064 303.726 108.165 303.918 108.368C304.121 108.56 304.222 108.805 304.222 109.104C304.222 109.392 304.121 109.643 303.918 109.856C303.726 110.059 303.481 110.16 303.182 110.16ZM39.7612 134L35.3132 122.896H36.9452L40.6092 132.288H40.0172L43.7132 122.896H45.3292L40.8492 134H39.7612ZM48.8889 134.16C48.1423 134.16 47.4703 133.984 46.8729 133.632C46.2756 133.28 45.8009 132.805 45.4489 132.208C45.0969 131.6 44.9209 130.923 44.9209 130.176C44.9209 129.44 45.0969 128.779 45.4489 128.192C45.8009 127.595 46.2756 127.12 46.8729 126.768C47.4703 126.416 48.1423 126.24 48.8889 126.24C49.6249 126.24 50.2916 126.416 50.8889 126.768C51.4969 127.109 51.9769 127.579 52.3289 128.176C52.6809 128.773 52.8569 129.44 52.8569 130.176C52.8569 130.923 52.6809 131.6 52.3289 132.208C51.9769 132.805 51.4969 133.28 50.8889 133.632C50.2916 133.984 49.6249 134.16 48.8889 134.16ZM48.8889 132.768C49.3689 132.768 49.7956 132.656 50.1689 132.432C50.5423 132.208 50.8356 131.904 51.0489 131.52C51.2623 131.125 51.3689 130.677 51.3689 130.176C51.3689 129.685 51.2569 129.248 51.0329 128.864C50.8196 128.48 50.5263 128.181 50.1529 127.968C49.7903 127.744 49.3689 127.632 48.8889 127.632C48.4089 127.632 47.9823 127.744 47.6089 127.968C47.2356 128.181 46.9423 128.48 46.7289 128.864C46.5156 129.248 46.4089 129.685 46.4089 130.176C46.4089 130.677 46.5156 131.125 46.7289 131.52C46.9423 131.904 47.2356 132.208 47.6089 132.432C47.9823 132.656 48.4089 132.768 48.8889 132.768ZM54.6794 134V122.576H56.1194V134H54.6794ZM61.4823 134.16C60.8636 134.16 60.3036 134.021 59.8023 133.744C59.3116 133.456 58.9276 133.061 58.6503 132.56C58.373 132.059 58.2343 131.477 58.2343 130.816V126.4H59.6743V130.752C59.6743 131.168 59.7436 131.531 59.8823 131.84C60.0316 132.139 60.245 132.368 60.5223 132.528C60.7996 132.688 61.125 132.768 61.4983 132.768C62.0636 132.768 62.5063 132.592 62.8263 132.24C63.1463 131.877 63.3063 131.381 63.3063 130.752V126.4H64.7463V130.816C64.7463 131.477 64.6076 132.059 64.3303 132.56C64.053 133.061 63.669 133.456 63.1783 133.744C62.6983 134.021 62.133 134.16 61.4823 134.16ZM68.0443 134V123.216H69.4843V134H68.0443ZM66.1723 127.712V126.4H71.3563V127.712H66.1723ZM76.9669 134.16C76.3909 134.16 75.8683 134.043 75.3989 133.808C74.9403 133.563 74.5723 133.227 74.2949 132.8C74.0176 132.373 73.8629 131.888 73.8309 131.344V129.056C73.8629 128.501 74.0176 128.016 74.2949 127.6C74.5829 127.173 74.9563 126.843 75.4149 126.608C75.8843 126.363 76.4016 126.24 76.9669 126.24C77.6603 126.24 78.2843 126.416 78.8389 126.768C79.4043 127.12 79.8469 127.595 80.1669 128.192C80.4869 128.789 80.6469 129.461 80.6469 130.208C80.6469 130.955 80.4869 131.627 80.1669 132.224C79.8469 132.821 79.4043 133.296 78.8389 133.648C78.2843 133.989 77.6603 134.16 76.9669 134.16ZM76.7269 132.8C77.2069 132.8 77.6283 132.688 77.9909 132.464C78.3536 132.24 78.6416 131.936 78.8549 131.552C79.0683 131.157 79.1749 130.704 79.1749 130.192C79.1749 129.691 79.0683 129.243 78.8549 128.848C78.6416 128.453 78.3536 128.149 77.9909 127.936C77.6283 127.712 77.2123 127.6 76.7429 127.6C76.2629 127.6 75.8416 127.712 75.4789 127.936C75.1163 128.149 74.8336 128.453 74.6309 128.848C74.4283 129.243 74.3269 129.696 74.3269 130.208C74.3269 130.709 74.4229 131.157 74.6149 131.552C74.8176 131.936 75.1003 132.24 75.4629 132.464C75.8363 132.688 76.2576 132.8 76.7269 132.8ZM72.9669 137.184V126.4H74.4069V128.4L74.1349 130.24L74.4069 132.096V137.184H72.9669ZM85.7114 134.16C85.0181 134.16 84.3888 133.989 83.8234 133.648C83.2581 133.296 82.8101 132.821 82.4794 132.224C82.1594 131.627 81.9994 130.955 81.9994 130.208C81.9994 129.461 82.1594 128.789 82.4794 128.192C82.8101 127.595 83.2528 127.12 83.8074 126.768C84.3728 126.416 85.0074 126.24 85.7114 126.24C86.2874 126.24 86.7994 126.363 87.2474 126.608C87.7061 126.843 88.0741 127.173 88.3514 127.6C88.6288 128.016 88.7834 128.501 88.8154 129.056V131.344C88.7834 131.888 88.6288 132.373 88.3514 132.8C88.0848 133.227 87.7221 133.563 87.2634 133.808C86.8154 134.043 86.2981 134.16 85.7114 134.16ZM85.9514 132.8C86.6661 132.8 87.2421 132.56 87.6794 132.08C88.1168 131.589 88.3354 130.965 88.3354 130.208C88.3354 129.685 88.2341 129.232 88.0314 128.848C87.8394 128.453 87.5621 128.149 87.1994 127.936C86.8368 127.712 86.4154 127.6 85.9354 127.6C85.4554 127.6 85.0288 127.712 84.6554 127.936C84.2928 128.16 84.0048 128.469 83.7914 128.864C83.5888 129.248 83.4874 129.691 83.4874 130.192C83.4874 130.704 83.5888 131.157 83.7914 131.552C84.0048 131.936 84.2981 132.24 84.6714 132.464C85.0448 132.688 85.4714 132.8 85.9514 132.8ZM88.2394 134V131.952L88.5114 130.096L88.2394 128.256V126.4H89.6954V134H88.2394ZM93.1287 134V123.216H94.5687V134H93.1287ZM91.2567 127.712V126.4H96.4407V127.712H91.2567ZM102.667 134V125.264C102.667 124.699 102.79 124.208 103.035 123.792C103.281 123.365 103.617 123.029 104.043 122.784C104.481 122.539 104.987 122.416 105.563 122.416C106.001 122.416 106.379 122.491 106.699 122.64C107.019 122.789 107.313 123.008 107.579 123.296L106.635 124.224C106.497 124.075 106.342 123.963 106.171 123.888C106.001 123.803 105.793 123.76 105.547 123.76C105.089 123.76 104.731 123.893 104.475 124.16C104.23 124.427 104.107 124.795 104.107 125.264V134H102.667ZM100.795 127.712V126.4H106.523V127.712H100.795ZM110.965 134.16C110.271 134.16 109.642 133.989 109.077 133.648C108.511 133.296 108.063 132.821 107.733 132.224C107.413 131.627 107.253 130.955 107.253 130.208C107.253 129.461 107.413 128.789 107.733 128.192C108.063 127.595 108.506 127.12 109.061 126.768C109.626 126.416 110.261 126.24 110.965 126.24C111.541 126.24 112.053 126.363 112.501 126.608C112.959 126.843 113.327 127.173 113.605 127.6C113.882 128.016 114.037 128.501 114.069 129.056V131.344C114.037 131.888 113.882 132.373 113.605 132.8C113.338 133.227 112.975 133.563 112.517 133.808C112.069 134.043 111.551 134.16 110.965 134.16ZM111.205 132.8C111.919 132.8 112.495 132.56 112.933 132.08C113.37 131.589 113.589 130.965 113.589 130.208C113.589 129.685 113.487 129.232 113.285 128.848C113.093 128.453 112.815 128.149 112.453 127.936C112.09 127.712 111.669 127.6 111.189 127.6C110.709 127.6 110.282 127.712 109.909 127.936C109.546 128.16 109.258 128.469 109.045 128.864C108.842 129.248 108.741 129.691 108.741 130.192C108.741 130.704 108.842 131.157 109.045 131.552C109.258 131.936 109.551 132.24 109.925 132.464C110.298 132.688 110.725 132.8 111.205 132.8ZM113.493 134V131.952L113.765 130.096L113.493 128.256V126.4H114.949V134H113.493ZM120.301 134.16C119.682 134.16 119.122 134.021 118.621 133.744C118.13 133.456 117.746 133.061 117.469 132.56C117.192 132.059 117.053 131.477 117.053 130.816V126.4H118.493V130.752C118.493 131.168 118.562 131.531 118.701 131.84C118.85 132.139 119.064 132.368 119.341 132.528C119.618 132.688 119.944 132.768 120.317 132.768C120.882 132.768 121.325 132.592 121.645 132.24C121.965 131.877 122.125 131.381 122.125 130.752V126.4H123.565V130.816C123.565 131.477 123.426 132.059 123.149 132.56C122.872 133.061 122.488 133.456 121.997 133.744C121.517 134.021 120.952 134.16 120.301 134.16ZM129.167 134.16C128.42 134.16 127.743 133.984 127.135 133.632C126.538 133.28 126.063 132.805 125.711 132.208C125.37 131.6 125.199 130.928 125.199 130.192C125.199 129.445 125.37 128.773 125.711 128.176C126.063 127.579 126.538 127.109 127.135 126.768C127.743 126.416 128.42 126.24 129.167 126.24C129.754 126.24 130.298 126.352 130.799 126.576C131.3 126.789 131.732 127.104 132.095 127.52L131.135 128.48C130.9 128.203 130.612 127.995 130.271 127.856C129.94 127.707 129.572 127.632 129.167 127.632C128.687 127.632 128.26 127.744 127.887 127.968C127.514 128.181 127.22 128.48 127.007 128.864C126.794 129.248 126.687 129.691 126.687 130.192C126.687 130.693 126.794 131.136 127.007 131.52C127.22 131.904 127.514 132.208 127.887 132.432C128.26 132.656 128.687 132.768 129.167 132.768C129.572 132.768 129.94 132.699 130.271 132.56C130.612 132.411 130.906 132.197 131.151 131.92L132.095 132.88C131.743 133.285 131.311 133.6 130.799 133.824C130.298 134.048 129.754 134.16 129.167 134.16ZM133.739 134V126.4H135.179V134H133.739ZM134.459 124.88C134.193 124.88 133.974 124.795 133.803 124.624C133.633 124.443 133.547 124.219 133.547 123.952C133.547 123.696 133.633 123.483 133.803 123.312C133.974 123.131 134.193 123.04 134.459 123.04C134.726 123.04 134.945 123.131 135.115 123.312C135.286 123.483 135.371 123.696 135.371 123.952C135.371 124.219 135.286 124.443 135.115 124.624C134.945 124.795 134.726 124.88 134.459 124.88ZM141.501 134.16C140.925 134.16 140.403 134.043 139.933 133.808C139.475 133.563 139.107 133.227 138.829 132.8C138.552 132.373 138.397 131.888 138.365 131.344V129.056C138.397 128.501 138.552 128.016 138.829 127.6C139.117 127.173 139.491 126.843 139.949 126.608C140.419 126.363 140.936 126.24 141.501 126.24C142.195 126.24 142.819 126.416 143.373 126.768C143.939 127.12 144.381 127.595 144.701 128.192C145.021 128.789 145.181 129.461 145.181 130.208C145.181 130.955 145.021 131.627 144.701 132.224C144.381 132.821 143.939 133.296 143.373 133.648C142.819 133.989 142.195 134.16 141.501 134.16ZM141.261 132.8C141.741 132.8 142.163 132.688 142.525 132.464C142.888 132.24 143.176 131.936 143.389 131.552C143.603 131.157 143.709 130.704 143.709 130.192C143.709 129.691 143.603 129.243 143.389 128.848C143.176 128.453 142.888 128.149 142.525 127.936C142.163 127.712 141.747 127.6 141.277 127.6C140.797 127.6 140.376 127.712 140.013 127.936C139.651 128.149 139.368 128.453 139.165 128.848C138.963 129.243 138.861 129.696 138.861 130.208C138.861 130.709 138.957 131.157 139.149 131.552C139.352 131.936 139.635 132.24 139.997 132.464C140.371 132.688 140.792 132.8 141.261 132.8ZM137.501 134V122.576H138.941V128.256L138.669 130.096L138.941 131.952V134H137.501ZM150.07 134.16C149.451 134.16 148.891 134.021 148.39 133.744C147.899 133.456 147.515 133.061 147.238 132.56C146.96 132.059 146.822 131.477 146.822 130.816V126.4H148.262V130.752C148.262 131.168 148.331 131.531 148.47 131.84C148.619 132.139 148.832 132.368 149.11 132.528C149.387 132.688 149.712 132.768 150.086 132.768C150.651 132.768 151.094 132.592 151.414 132.24C151.734 131.877 151.894 131.381 151.894 130.752V126.4H153.334V130.816C153.334 131.477 153.195 132.059 152.918 132.56C152.64 133.061 152.256 133.456 151.766 133.744C151.286 134.021 150.72 134.16 150.07 134.16ZM157.88 134.16C157.453 134.16 157.048 134.107 156.664 134C156.29 133.883 155.944 133.723 155.624 133.52C155.304 133.307 155.026 133.056 154.792 132.768L155.72 131.84C155.997 132.181 156.317 132.437 156.68 132.608C157.042 132.768 157.448 132.848 157.896 132.848C158.344 132.848 158.69 132.773 158.936 132.624C159.181 132.464 159.304 132.245 159.304 131.968C159.304 131.691 159.202 131.477 159 131.328C158.808 131.168 158.557 131.04 158.248 130.944C157.938 130.837 157.608 130.736 157.256 130.64C156.914 130.533 156.589 130.4 156.28 130.24C155.97 130.08 155.714 129.861 155.512 129.584C155.32 129.307 155.224 128.939 155.224 128.48C155.224 128.021 155.336 127.627 155.56 127.296C155.784 126.955 156.093 126.693 156.488 126.512C156.893 126.331 157.378 126.24 157.944 126.24C158.541 126.24 159.069 126.347 159.528 126.56C159.997 126.763 160.381 127.072 160.68 127.488L159.752 128.416C159.538 128.139 159.272 127.925 158.952 127.776C158.642 127.627 158.29 127.552 157.896 127.552C157.48 127.552 157.16 127.627 156.936 127.776C156.722 127.915 156.616 128.112 156.616 128.368C156.616 128.624 156.712 128.821 156.904 128.96C157.096 129.099 157.346 129.216 157.656 129.312C157.976 129.408 158.306 129.509 158.648 129.616C158.989 129.712 159.314 129.845 159.624 130.016C159.933 130.187 160.184 130.416 160.376 130.704C160.578 130.992 160.68 131.371 160.68 131.84C160.68 132.555 160.424 133.12 159.912 133.536C159.41 133.952 158.733 134.16 157.88 134.16ZM171.396 134V129.568C171.396 128.992 171.215 128.517 170.852 128.144C170.489 127.771 170.02 127.584 169.444 127.584C169.06 127.584 168.719 127.669 168.42 127.84C168.121 128.011 167.887 128.245 167.716 128.544C167.545 128.843 167.46 129.184 167.46 129.568L166.868 129.232C166.868 128.656 166.996 128.144 167.252 127.696C167.508 127.248 167.865 126.896 168.324 126.64C168.783 126.373 169.3 126.24 169.876 126.24C170.452 126.24 170.959 126.384 171.396 126.672C171.844 126.96 172.196 127.339 172.452 127.808C172.708 128.267 172.836 128.757 172.836 129.28V134H171.396ZM166.02 134V126.4H167.46V134H166.02ZM178.042 134.16C177.423 134.16 176.863 134.021 176.362 133.744C175.871 133.456 175.487 133.061 175.21 132.56C174.932 132.059 174.794 131.477 174.794 130.816V126.4H176.234V130.752C176.234 131.168 176.303 131.531 176.442 131.84C176.591 132.139 176.804 132.368 177.082 132.528C177.359 132.688 177.684 132.768 178.058 132.768C178.623 132.768 179.066 132.592 179.386 132.24C179.706 131.877 179.866 131.381 179.866 130.752V126.4H181.306V130.816C181.306 131.477 181.167 132.059 180.89 132.56C180.612 133.061 180.228 133.456 179.738 133.744C179.258 134.021 178.692 134.16 178.042 134.16ZM183.436 134V122.576H184.876V134H183.436ZM187.183 134V122.576H188.623V134H187.183ZM194.161 134.16C193.468 134.16 192.839 133.989 192.273 133.648C191.708 133.296 191.26 132.821 190.929 132.224C190.609 131.627 190.449 130.955 190.449 130.208C190.449 129.461 190.609 128.789 190.929 128.192C191.26 127.595 191.703 127.12 192.257 126.768C192.823 126.416 193.457 126.24 194.161 126.24C194.737 126.24 195.249 126.363 195.697 126.608C196.156 126.843 196.524 127.173 196.801 127.6C197.079 128.016 197.233 128.501 197.265 129.056V131.344C197.233 131.888 197.079 132.373 196.801 132.8C196.535 133.227 196.172 133.563 195.713 133.808C195.265 134.043 194.748 134.16 194.161 134.16ZM194.401 132.8C195.116 132.8 195.692 132.56 196.129 132.08C196.567 131.589 196.785 130.965 196.785 130.208C196.785 129.685 196.684 129.232 196.481 128.848C196.289 128.453 196.012 128.149 195.649 127.936C195.287 127.712 194.865 127.6 194.385 127.6C193.905 127.6 193.479 127.712 193.105 127.936C192.743 128.16 192.455 128.469 192.241 128.864C192.039 129.248 191.937 129.691 191.937 130.192C191.937 130.704 192.039 131.157 192.241 131.552C192.455 131.936 192.748 132.24 193.121 132.464C193.495 132.688 193.921 132.8 194.401 132.8ZM196.689 134V131.952L196.961 130.096L196.689 128.256V126.4H198.145V134H196.689ZM203.97 134V126.4H205.41V134H203.97ZM209.106 134V129.408C209.106 128.843 208.93 128.4 208.578 128.08C208.237 127.749 207.805 127.584 207.282 127.584C206.93 127.584 206.615 127.659 206.338 127.808C206.061 127.957 205.837 128.165 205.666 128.432C205.495 128.699 205.41 129.019 205.41 129.392L204.818 129.104C204.818 128.528 204.941 128.027 205.186 127.6C205.442 127.173 205.789 126.843 206.226 126.608C206.663 126.363 207.154 126.24 207.698 126.24C208.231 126.24 208.711 126.357 209.138 126.592C209.575 126.827 209.917 127.157 210.162 127.584C210.418 128.011 210.546 128.517 210.546 129.104V134H209.106ZM214.242 134V129.408C214.242 128.843 214.066 128.4 213.714 128.08C213.373 127.749 212.946 127.584 212.434 127.584C212.082 127.584 211.762 127.659 211.474 127.808C211.197 127.957 210.973 128.165 210.802 128.432C210.631 128.699 210.546 129.019 210.546 129.392L209.73 129.104C209.762 128.517 209.917 128.016 210.194 127.6C210.482 127.173 210.85 126.843 211.298 126.608C211.746 126.363 212.237 126.24 212.77 126.24C213.325 126.24 213.821 126.357 214.258 126.592C214.695 126.827 215.042 127.157 215.298 127.584C215.565 128.011 215.698 128.523 215.698 129.12V134H214.242ZM221.09 134.16C220.396 134.16 219.767 133.989 219.202 133.648C218.636 133.296 218.188 132.821 217.858 132.224C217.538 131.627 217.378 130.955 217.378 130.208C217.378 129.461 217.538 128.789 217.858 128.192C218.188 127.595 218.631 127.12 219.186 126.768C219.751 126.416 220.386 126.24 221.09 126.24C221.666 126.24 222.178 126.363 222.626 126.608C223.084 126.843 223.452 127.173 223.73 127.6C224.007 128.016 224.162 128.501 224.194 129.056V131.344C224.162 131.888 224.007 132.373 223.73 132.8C223.463 133.227 223.1 133.563 222.642 133.808C222.194 134.043 221.676 134.16 221.09 134.16ZM221.33 132.8C222.044 132.8 222.62 132.56 223.058 132.08C223.495 131.589 223.714 130.965 223.714 130.208C223.714 129.685 223.612 129.232 223.41 128.848C223.218 128.453 222.94 128.149 222.578 127.936C222.215 127.712 221.794 127.6 221.314 127.6C220.834 127.6 220.407 127.712 220.034 127.936C219.671 128.16 219.383 128.469 219.17 128.864C218.967 129.248 218.866 129.691 218.866 130.192C218.866 130.704 218.967 131.157 219.17 131.552C219.383 131.936 219.676 132.24 220.05 132.464C220.423 132.688 220.85 132.8 221.33 132.8ZM223.618 134V131.952L223.89 130.096L223.618 128.256V126.4H225.074V134H223.618ZM227.37 134V122.576H228.81V134H227.37ZM234.637 134.16C233.88 134.16 233.197 133.989 232.589 133.648C231.981 133.296 231.501 132.821 231.149 132.224C230.797 131.627 230.621 130.949 230.621 130.192C230.621 129.445 230.792 128.773 231.133 128.176C231.485 127.579 231.954 127.109 232.541 126.768C233.138 126.416 233.805 126.24 234.541 126.24C235.245 126.24 235.864 126.4 236.397 126.72C236.941 127.04 237.362 127.483 237.661 128.048C237.97 128.613 238.125 129.253 238.125 129.968C238.125 130.075 238.12 130.192 238.109 130.32C238.098 130.437 238.077 130.576 238.045 130.736H231.629V129.536H237.277L236.749 130C236.749 129.488 236.658 129.056 236.477 128.704C236.296 128.341 236.04 128.064 235.709 127.872C235.378 127.669 234.978 127.568 234.509 127.568C234.018 127.568 233.586 127.675 233.213 127.888C232.84 128.101 232.552 128.4 232.349 128.784C232.146 129.168 232.045 129.621 232.045 130.144C232.045 130.677 232.152 131.147 232.365 131.552C232.578 131.947 232.882 132.256 233.277 132.48C233.672 132.693 234.125 132.8 234.637 132.8C235.064 132.8 235.453 132.725 235.805 132.576C236.168 132.427 236.477 132.203 236.733 131.904L237.661 132.848C237.298 133.275 236.85 133.6 236.317 133.824C235.794 134.048 235.234 134.16 234.637 134.16ZM242.311 134.16C241.884 134.16 241.479 134.107 241.095 134C240.722 133.883 240.375 133.723 240.055 133.52C239.735 133.307 239.458 133.056 239.223 132.768L240.151 131.84C240.428 132.181 240.748 132.437 241.111 132.608C241.474 132.768 241.879 132.848 242.327 132.848C242.775 132.848 243.122 132.773 243.367 132.624C243.612 132.464 243.735 132.245 243.735 131.968C243.735 131.691 243.634 131.477 243.431 131.328C243.239 131.168 242.988 131.04 242.679 130.944C242.37 130.837 242.039 130.736 241.687 130.64C241.346 130.533 241.02 130.4 240.711 130.24C240.402 130.08 240.146 129.861 239.943 129.584C239.751 129.307 239.655 128.939 239.655 128.48C239.655 128.021 239.767 127.627 239.991 127.296C240.215 126.955 240.524 126.693 240.919 126.512C241.324 126.331 241.81 126.24 242.375 126.24C242.972 126.24 243.5 126.347 243.959 126.56C244.428 126.763 244.812 127.072 245.111 127.488L244.183 128.416C243.97 128.139 243.703 127.925 243.383 127.776C243.074 127.627 242.722 127.552 242.327 127.552C241.911 127.552 241.591 127.627 241.367 127.776C241.154 127.915 241.047 128.112 241.047 128.368C241.047 128.624 241.143 128.821 241.335 128.96C241.527 129.099 241.778 129.216 242.087 129.312C242.407 129.408 242.738 129.509 243.079 129.616C243.42 129.712 243.746 129.845 244.055 130.016C244.364 130.187 244.615 130.416 244.807 130.704C245.01 130.992 245.111 131.371 245.111 131.84C245.111 132.555 244.855 133.12 244.343 133.536C243.842 133.952 243.164 134.16 242.311 134.16ZM249.979 134.16C249.361 134.16 248.801 134.021 248.299 133.744C247.809 133.456 247.425 133.061 247.147 132.56C246.87 132.059 246.731 131.477 246.731 130.816V126.4H248.171V130.752C248.171 131.168 248.241 131.531 248.379 131.84C248.529 132.139 248.742 132.368 249.019 132.528C249.297 132.688 249.622 132.768 249.995 132.768C250.561 132.768 251.003 132.592 251.323 132.24C251.643 131.877 251.803 131.381 251.803 130.752V126.4H253.243V130.816C253.243 131.477 253.105 132.059 252.827 132.56C252.55 133.061 252.166 133.456 251.675 133.744C251.195 134.021 250.63 134.16 249.979 134.16ZM258.605 134.16C257.912 134.16 257.283 133.989 256.717 133.648C256.152 133.296 255.704 132.821 255.373 132.224C255.053 131.627 254.893 130.955 254.893 130.208C254.893 129.461 255.053 128.789 255.373 128.192C255.704 127.595 256.147 127.12 256.701 126.768C257.267 126.416 257.901 126.24 258.605 126.24C259.181 126.24 259.693 126.363 260.141 126.608C260.6 126.843 260.968 127.173 261.245 127.6C261.523 128.016 261.677 128.501 261.709 129.056V131.344C261.677 131.888 261.523 132.373 261.245 132.8C260.979 133.227 260.616 133.563 260.157 133.808C259.709 134.043 259.192 134.16 258.605 134.16ZM258.845 132.8C259.56 132.8 260.136 132.56 260.573 132.08C261.011 131.589 261.229 130.965 261.229 130.208C261.229 129.685 261.128 129.232 260.925 128.848C260.733 128.453 260.456 128.149 260.093 127.936C259.731 127.712 259.309 127.6 258.829 127.6C258.349 127.6 257.923 127.712 257.549 127.936C257.187 128.16 256.899 128.469 256.685 128.864C256.483 129.248 256.381 129.691 256.381 130.192C256.381 130.704 256.483 131.157 256.685 131.552C256.899 131.936 257.192 132.24 257.565 132.464C257.939 132.688 258.365 132.8 258.845 132.8ZM261.133 134V131.952L261.405 130.096L261.133 128.256V126.4H262.589V134H261.133ZM268.102 134.16C267.398 134.16 266.768 133.989 266.214 133.648C265.659 133.296 265.216 132.821 264.886 132.224C264.566 131.627 264.406 130.955 264.406 130.208C264.406 129.461 264.566 128.789 264.886 128.192C265.216 127.595 265.659 127.12 266.214 126.768C266.768 126.416 267.398 126.24 268.102 126.24C268.667 126.24 269.179 126.363 269.638 126.608C270.096 126.843 270.464 127.173 270.742 127.6C271.03 128.016 271.19 128.501 271.222 129.056V131.344C271.19 131.888 271.035 132.373 270.758 132.8C270.48 133.227 270.112 133.563 269.654 133.808C269.195 134.043 268.678 134.16 268.102 134.16ZM268.342 132.8C268.822 132.8 269.238 132.688 269.59 132.464C269.952 132.24 270.235 131.936 270.438 131.552C270.64 131.157 270.742 130.709 270.742 130.208C270.742 129.685 270.635 129.232 270.422 128.848C270.219 128.464 269.936 128.16 269.574 127.936C269.222 127.712 268.806 127.6 268.326 127.6C267.846 127.6 267.424 127.712 267.062 127.936C266.699 128.16 266.411 128.469 266.198 128.864C265.995 129.248 265.894 129.691 265.894 130.192C265.894 130.704 265.995 131.157 266.198 131.552C266.411 131.936 266.699 132.24 267.062 132.464C267.435 132.688 267.862 132.8 268.342 132.8ZM272.102 134H270.646V131.952L270.918 130.096L270.646 128.256V122.576H272.102V134ZM277.63 134.16C276.937 134.16 276.307 133.989 275.742 133.648C275.177 133.296 274.729 132.821 274.398 132.224C274.078 131.627 273.918 130.955 273.918 130.208C273.918 129.461 274.078 128.789 274.398 128.192C274.729 127.595 275.171 127.12 275.726 126.768C276.291 126.416 276.926 126.24 277.63 126.24C278.206 126.24 278.718 126.363 279.166 126.608C279.625 126.843 279.993 127.173 280.27 127.6C280.547 128.016 280.702 128.501 280.734 129.056V131.344C280.702 131.888 280.547 132.373 280.27 132.8C280.003 133.227 279.641 133.563 279.182 133.808C278.734 134.043 278.217 134.16 277.63 134.16ZM277.87 132.8C278.585 132.8 279.161 132.56 279.598 132.08C280.035 131.589 280.254 130.965 280.254 130.208C280.254 129.685 280.153 129.232 279.95 128.848C279.758 128.453 279.481 128.149 279.118 127.936C278.755 127.712 278.334 127.6 277.854 127.6C277.374 127.6 276.947 127.712 276.574 127.936C276.211 128.16 275.923 128.469 275.71 128.864C275.507 129.248 275.406 129.691 275.406 130.192C275.406 130.704 275.507 131.157 275.71 131.552C275.923 131.936 276.217 132.24 276.59 132.464C276.963 132.688 277.39 132.8 277.87 132.8ZM280.158 134V131.952L280.43 130.096L280.158 128.256V126.4H281.614V134H280.158ZM117.309 158.16C116.733 158.16 116.21 158.043 115.741 157.808C115.282 157.563 114.914 157.227 114.637 156.8C114.36 156.373 114.205 155.888 114.173 155.344V153.056C114.205 152.501 114.36 152.016 114.637 151.6C114.925 151.173 115.298 150.843 115.757 150.608C116.226 150.363 116.744 150.24 117.309 150.24C118.002 150.24 118.626 150.416 119.181 150.768C119.746 151.12 120.189 151.595 120.509 152.192C120.829 152.789 120.989 153.461 120.989 154.208C120.989 154.955 120.829 155.627 120.509 156.224C120.189 156.821 119.746 157.296 119.181 157.648C118.626 157.989 118.002 158.16 117.309 158.16ZM117.069 156.8C117.549 156.8 117.97 156.688 118.333 156.464C118.696 156.24 118.984 155.936 119.197 155.552C119.41 155.157 119.517 154.704 119.517 154.192C119.517 153.691 119.41 153.243 119.197 152.848C118.984 152.453 118.696 152.149 118.333 151.936C117.97 151.712 117.554 151.6 117.085 151.6C116.605 151.6 116.184 151.712 115.821 151.936C115.458 152.149 115.176 152.453 114.973 152.848C114.77 153.243 114.669 153.696 114.669 154.208C114.669 154.709 114.765 155.157 114.957 155.552C115.16 155.936 115.442 156.24 115.805 156.464C116.178 156.688 116.6 156.8 117.069 156.8ZM113.309 161.184V150.4H114.749V152.4L114.477 154.24L114.749 156.096V161.184H113.309ZM126.342 158.16C125.584 158.16 124.902 157.989 124.294 157.648C123.686 157.296 123.206 156.821 122.854 156.224C122.502 155.627 122.326 154.949 122.326 154.192C122.326 153.445 122.496 152.773 122.838 152.176C123.19 151.579 123.659 151.109 124.246 150.768C124.843 150.416 125.51 150.24 126.246 150.24C126.95 150.24 127.568 150.4 128.102 150.72C128.646 151.04 129.067 151.483 129.366 152.048C129.675 152.613 129.83 153.253 129.83 153.968C129.83 154.075 129.824 154.192 129.814 154.32C129.803 154.437 129.782 154.576 129.75 154.736H123.334V153.536H128.982L128.454 154C128.454 153.488 128.363 153.056 128.182 152.704C128 152.341 127.744 152.064 127.414 151.872C127.083 151.669 126.683 151.568 126.214 151.568C125.723 151.568 125.291 151.675 124.918 151.888C124.544 152.101 124.256 152.4 124.054 152.784C123.851 153.168 123.75 153.621 123.75 154.144C123.75 154.677 123.856 155.147 124.07 155.552C124.283 155.947 124.587 156.256 124.982 156.48C125.376 156.693 125.83 156.8 126.342 156.8C126.768 156.8 127.158 156.725 127.51 156.576C127.872 156.427 128.182 156.203 128.438 155.904L129.366 156.848C129.003 157.275 128.555 157.6 128.022 157.824C127.499 158.048 126.939 158.16 126.342 158.16ZM131.6 158V146.576H133.04V158H131.6ZM135.347 158V146.576H136.787V158H135.347ZM142.614 158.16C141.856 158.16 141.174 157.989 140.566 157.648C139.958 157.296 139.478 156.821 139.126 156.224C138.774 155.627 138.598 154.949 138.598 154.192C138.598 153.445 138.768 152.773 139.11 152.176C139.462 151.579 139.931 151.109 140.518 150.768C141.115 150.416 141.782 150.24 142.518 150.24C143.222 150.24 143.84 150.4 144.374 150.72C144.918 151.04 145.339 151.483 145.638 152.048C145.947 152.613 146.102 153.253 146.102 153.968C146.102 154.075 146.096 154.192 146.086 154.32C146.075 154.437 146.054 154.576 146.022 154.736H139.606V153.536H145.254L144.726 154C144.726 153.488 144.635 153.056 144.454 152.704C144.272 152.341 144.016 152.064 143.686 151.872C143.355 151.669 142.955 151.568 142.486 151.568C141.995 151.568 141.563 151.675 141.19 151.888C140.816 152.101 140.528 152.4 140.326 152.784C140.123 153.168 140.022 153.621 140.022 154.144C140.022 154.677 140.128 155.147 140.342 155.552C140.555 155.947 140.859 156.256 141.254 156.48C141.648 156.693 142.102 156.8 142.614 156.8C143.04 156.8 143.43 156.725 143.782 156.576C144.144 156.427 144.454 156.203 144.71 155.904L145.638 156.848C145.275 157.275 144.827 157.6 144.294 157.824C143.771 158.048 143.211 158.16 142.614 158.16ZM153.248 158V153.568C153.248 152.992 153.066 152.517 152.704 152.144C152.341 151.771 151.872 151.584 151.296 151.584C150.912 151.584 150.57 151.669 150.272 151.84C149.973 152.011 149.738 152.245 149.568 152.544C149.397 152.843 149.312 153.184 149.312 153.568L148.72 153.232C148.72 152.656 148.848 152.144 149.104 151.696C149.36 151.248 149.717 150.896 150.176 150.64C150.634 150.373 151.152 150.24 151.728 150.24C152.304 150.24 152.81 150.384 153.248 150.672C153.696 150.96 154.048 151.339 154.304 151.808C154.56 152.267 154.688 152.757 154.688 153.28V158H153.248ZM147.872 158V150.4H149.312V158H147.872ZM157.912 158V147.216H159.352V158H157.912ZM156.04 151.712V150.4H161.224V151.712H156.04ZM166.12 158.16C165.362 158.16 164.68 157.989 164.072 157.648C163.464 157.296 162.984 156.821 162.632 156.224C162.28 155.627 162.104 154.949 162.104 154.192C162.104 153.445 162.274 152.773 162.616 152.176C162.968 151.579 163.437 151.109 164.024 150.768C164.621 150.416 165.288 150.24 166.024 150.24C166.728 150.24 167.346 150.4 167.88 150.72C168.424 151.04 168.845 151.483 169.144 152.048C169.453 152.613 169.608 153.253 169.608 153.968C169.608 154.075 169.602 154.192 169.592 154.32C169.581 154.437 169.56 154.576 169.528 154.736H163.112V153.536H168.76L168.232 154C168.232 153.488 168.141 153.056 167.96 152.704C167.778 152.341 167.522 152.064 167.192 151.872C166.861 151.669 166.461 151.568 165.992 151.568C165.501 151.568 165.069 151.675 164.696 151.888C164.322 152.101 164.034 152.4 163.832 152.784C163.629 153.168 163.528 153.621 163.528 154.144C163.528 154.677 163.634 155.147 163.848 155.552C164.061 155.947 164.365 156.256 164.76 156.48C165.154 156.693 165.608 156.8 166.12 156.8C166.546 156.8 166.936 156.725 167.288 156.576C167.65 156.427 167.96 156.203 168.216 155.904L169.144 156.848C168.781 157.275 168.333 157.6 167.8 157.824C167.277 158.048 166.717 158.16 166.12 158.16ZM173.794 158.16C173.367 158.16 172.962 158.107 172.578 158C172.205 157.883 171.858 157.723 171.538 157.52C171.218 157.307 170.941 157.056 170.706 156.768L171.634 155.84C171.911 156.181 172.231 156.437 172.594 156.608C172.957 156.768 173.362 156.848 173.81 156.848C174.258 156.848 174.605 156.773 174.85 156.624C175.095 156.464 175.218 156.245 175.218 155.968C175.218 155.691 175.117 155.477 174.914 155.328C174.722 155.168 174.471 155.04 174.162 154.944C173.853 154.837 173.522 154.736 173.17 154.64C172.829 154.533 172.503 154.4 172.194 154.24C171.885 154.08 171.629 153.861 171.426 153.584C171.234 153.307 171.138 152.939 171.138 152.48C171.138 152.021 171.25 151.627 171.474 151.296C171.698 150.955 172.007 150.693 172.402 150.512C172.807 150.331 173.293 150.24 173.858 150.24C174.455 150.24 174.983 150.347 175.442 150.56C175.911 150.763 176.295 151.072 176.594 151.488L175.666 152.416C175.453 152.139 175.186 151.925 174.866 151.776C174.557 151.627 174.205 151.552 173.81 151.552C173.394 151.552 173.074 151.627 172.85 151.776C172.637 151.915 172.53 152.112 172.53 152.368C172.53 152.624 172.626 152.821 172.818 152.96C173.01 153.099 173.261 153.216 173.57 153.312C173.89 153.408 174.221 153.509 174.562 153.616C174.903 153.712 175.229 153.845 175.538 154.016C175.847 154.187 176.098 154.416 176.29 154.704C176.493 154.992 176.594 155.371 176.594 155.84C176.594 156.555 176.338 157.12 175.826 157.536C175.325 157.952 174.647 158.16 173.794 158.16ZM181.654 158.16C180.95 158.16 180.315 157.989 179.75 157.648C179.185 157.296 178.737 156.821 178.406 156.224C178.086 155.627 177.926 154.955 177.926 154.208C177.926 153.461 178.086 152.789 178.406 152.192C178.737 151.595 179.185 151.12 179.75 150.768C180.315 150.416 180.945 150.24 181.638 150.24C182.225 150.24 182.742 150.363 183.19 150.608C183.649 150.843 184.011 151.173 184.278 151.6C184.555 152.016 184.71 152.501 184.742 153.056V155.344C184.71 155.888 184.555 156.373 184.278 156.8C184.011 157.227 183.649 157.563 183.19 157.808C182.742 158.043 182.23 158.16 181.654 158.16ZM181.878 156.8C182.593 156.8 183.169 156.56 183.606 156.08C184.043 155.589 184.262 154.965 184.262 154.208C184.262 153.685 184.161 153.232 183.958 152.848C183.766 152.453 183.489 152.149 183.126 151.936C182.774 151.712 182.358 151.6 181.878 151.6C181.398 151.6 180.971 151.712 180.598 151.936C180.235 152.16 179.947 152.469 179.734 152.864C179.521 153.248 179.414 153.691 179.414 154.192C179.414 154.704 179.521 155.157 179.734 155.552C179.947 155.936 180.235 156.24 180.598 156.464C180.971 156.688 181.398 156.8 181.878 156.8ZM184.182 161.184V156.096L184.438 154.24L184.182 152.4V150.4H185.622V161.184H184.182ZM190.99 158.16C190.371 158.16 189.811 158.021 189.31 157.744C188.819 157.456 188.435 157.061 188.158 156.56C187.881 156.059 187.742 155.477 187.742 154.816V150.4H189.182V154.752C189.182 155.168 189.251 155.531 189.39 155.84C189.539 156.139 189.753 156.368 190.03 156.528C190.307 156.688 190.633 156.768 191.006 156.768C191.571 156.768 192.014 156.592 192.334 156.24C192.654 155.877 192.814 155.381 192.814 154.752V150.4H194.254V154.816C194.254 155.477 194.115 156.059 193.838 156.56C193.561 157.061 193.177 157.456 192.686 157.744C192.206 158.021 191.641 158.16 190.99 158.16ZM199.904 158.16C199.147 158.16 198.464 157.989 197.856 157.648C197.248 157.296 196.768 156.821 196.416 156.224C196.064 155.627 195.888 154.949 195.888 154.192C195.888 153.445 196.059 152.773 196.4 152.176C196.752 151.579 197.221 151.109 197.808 150.768C198.405 150.416 199.072 150.24 199.808 150.24C200.512 150.24 201.131 150.4 201.664 150.72C202.208 151.04 202.629 151.483 202.928 152.048C203.237 152.613 203.392 153.253 203.392 153.968C203.392 154.075 203.387 154.192 203.376 154.32C203.365 154.437 203.344 154.576 203.312 154.736H196.896V153.536H202.544L202.016 154C202.016 153.488 201.925 153.056 201.744 152.704C201.563 152.341 201.307 152.064 200.976 151.872C200.645 151.669 200.245 151.568 199.776 151.568C199.285 151.568 198.853 151.675 198.48 151.888C198.107 152.101 197.819 152.4 197.616 152.784C197.413 153.168 197.312 153.621 197.312 154.144C197.312 154.677 197.419 155.147 197.632 155.552C197.845 155.947 198.149 156.256 198.544 156.48C198.939 156.693 199.392 156.8 199.904 156.8C200.331 156.8 200.72 156.725 201.072 156.576C201.435 156.427 201.744 156.203 202 155.904L202.928 156.848C202.565 157.275 202.117 157.6 201.584 157.824C201.061 158.048 200.501 158.16 199.904 158.16ZM206.426 158.16C206.128 158.16 205.877 158.059 205.674 157.856C205.482 157.643 205.386 157.392 205.386 157.104C205.386 156.805 205.482 156.56 205.674 156.368C205.877 156.165 206.128 156.064 206.426 156.064C206.725 156.064 206.97 156.165 207.162 156.368C207.365 156.56 207.466 156.805 207.466 157.104C207.466 157.392 207.365 157.643 207.162 157.856C206.97 158.059 206.725 158.16 206.426 158.16Z" fill="#343A40"/>
</svg>
