<svg width="12" height="24" viewBox="0 0 12 24" fill="none" xmlns="http://www.w3.org/2000/svg">
<g clip-path="url(#clip0_983_6667)">
<path d="M12.461 0.173117V3.98112H10.196C10.117 3.97012 10.025 3.96412 9.932 3.96412C9.39 3.96412 8.896 4.16712 8.521 4.50212L8.523 4.50012C8.248 4.88412 8.084 5.36312 8.084 5.88112C8.084 5.94312 8.086 6.00512 8.091 6.06612V6.05812V8.78412H12.32L11.76 13.0541H8.097V24.0001H3.68V13.0531H0V8.78412H3.68V5.63912C3.673 5.53712 3.669 5.41712 3.669 5.29712C3.669 3.81912 4.244 2.47512 5.182 1.47712L5.179 1.48012C6.151 0.560117 7.467 -0.00488281 8.914 -0.00488281C9.004 -0.00488281 9.094 -0.00288281 9.184 0.00211719H9.171C9.289 0.000117187 9.427 -0.000882813 9.566 -0.000882813C10.586 -0.000882813 11.591 0.0631172 12.577 0.187117L12.46 0.175117L12.461 0.173117Z" fill="white"/>
</g>
<defs>
<clipPath id="clip0_983_6667">
<rect width="12" height="24" fill="white"/>
</clipPath>
</defs>
</svg>
