<svg width="14" height="14" viewBox="0 0 14 14" fill="none" xmlns="http://www.w3.org/2000/svg">
<path d="M10.5587 2.63992C10.4005 2.63992 10.2458 2.68684 10.1142 2.77474C9.98268 2.86265 9.88014 2.98759 9.81959 3.13377C9.75904 3.27995 9.7432 3.44081 9.77407 3.59599C9.80494 3.75118 9.88113 3.89372 9.99301 4.0056C10.1049 4.11749 10.2474 4.19368 10.4026 4.22455C10.5578 4.25541 10.7187 4.23957 10.8648 4.17902C11.011 4.11847 11.136 4.01593 11.2239 3.88437C11.3118 3.75282 11.3587 3.59814 11.3587 3.43992C11.3587 3.22775 11.2744 3.02426 11.1244 2.87423C10.9744 2.7242 10.7709 2.63992 10.5587 2.63992ZM13.6254 4.25325C13.6124 3.70012 13.5088 3.15285 13.3187 2.63325C13.1492 2.18867 12.8854 1.7861 12.5454 1.45325C12.2152 1.11154 11.8117 0.84937 11.3654 0.686585C10.8471 0.490692 10.2993 0.384725 9.74536 0.373252C9.0387 0.333252 8.81203 0.333252 6.9987 0.333252C5.18536 0.333252 4.9587 0.333252 4.25203 0.373252C3.69813 0.384725 3.15026 0.490692 2.63203 0.686585C2.18648 0.851018 1.78332 1.11296 1.45203 1.45325C1.11032 1.78337 0.848149 2.18688 0.685365 2.63325C0.489472 3.15148 0.383505 3.69935 0.372031 4.25325C0.332031 4.95992 0.332031 5.18658 0.332031 6.99992C0.332031 8.81325 0.332031 9.03992 0.372031 9.74658C0.383505 10.3005 0.489472 10.8484 0.685365 11.3666C0.848149 11.813 1.11032 12.2165 1.45203 12.5466C1.78332 12.8869 2.18648 13.1488 2.63203 13.3133C3.15026 13.5091 3.69813 13.6151 4.25203 13.6266C4.9587 13.6666 5.18536 13.6666 6.9987 13.6666C8.81203 13.6666 9.0387 13.6666 9.74536 13.6266C10.2993 13.6151 10.8471 13.5091 11.3654 13.3133C11.8117 13.1505 12.2152 12.8883 12.5454 12.5466C12.8869 12.215 13.1509 11.812 13.3187 11.3666C13.5088 10.847 13.6124 10.2997 13.6254 9.74658C13.6254 9.03992 13.6654 8.81325 13.6654 6.99992C13.6654 5.18658 13.6654 4.95992 13.6254 4.25325ZM12.4254 9.66658C12.4205 10.0898 12.3439 10.5091 12.1987 10.9066C12.0923 11.1967 11.9213 11.4589 11.6987 11.6733C11.4825 11.8936 11.2208 12.0642 10.932 12.1733C10.5345 12.3184 10.1152 12.3951 9.69203 12.3999C9.02536 12.4333 8.7787 12.4399 7.02536 12.4399C5.27203 12.4399 5.02536 12.4399 4.3587 12.3999C3.91929 12.4081 3.48176 12.3405 3.06536 12.1999C2.78922 12.0853 2.5396 11.9151 2.33203 11.6999C2.11076 11.4858 1.94193 11.2234 1.8387 10.9333C1.67594 10.53 1.58566 10.1012 1.57203 9.66658C1.57203 8.99992 1.53203 8.75325 1.53203 6.99992C1.53203 5.24658 1.53203 4.99992 1.57203 4.33325C1.57502 3.90062 1.654 3.47188 1.80536 3.06659C1.92273 2.78519 2.10287 2.53436 2.33203 2.33325C2.53457 2.10403 2.78489 1.92198 3.06536 1.79992C3.47173 1.65328 3.90003 1.57664 4.33203 1.57325C4.9987 1.57325 5.24536 1.53325 6.9987 1.53325C8.75203 1.53325 8.9987 1.53325 9.66536 1.57325C10.0885 1.57811 10.5078 1.65475 10.9054 1.79992C11.2083 1.91235 11.4802 2.09515 11.6987 2.33325C11.9172 2.53804 12.0879 2.78841 12.1987 3.06659C12.3469 3.47254 12.4236 3.9011 12.4254 4.33325C12.4587 4.99992 12.4654 5.24658 12.4654 6.99992C12.4654 8.75325 12.4587 8.99992 12.4254 9.66658ZM6.9987 3.57992C6.32257 3.58124 5.66201 3.78294 5.10047 4.15953C4.53893 4.53613 4.10162 5.07072 3.84379 5.69575C3.58596 6.32079 3.51918 7.00823 3.65189 7.6712C3.78461 8.33418 4.11086 8.94294 4.58942 9.42057C5.06798 9.8982 5.67737 10.2233 6.3406 10.3547C7.00384 10.4861 7.69114 10.418 8.31568 10.1589C8.94021 9.8999 9.47395 9.46154 9.84945 8.89927C10.225 8.337 10.4254 7.67605 10.4254 6.99992C10.4262 6.54999 10.3382 6.10432 10.1662 5.68856C9.99422 5.27279 9.74174 4.89512 9.42328 4.57729C9.10482 4.25945 8.72666 4.0077 8.31056 3.83654C7.89446 3.66537 7.44863 3.57816 6.9987 3.57992ZM6.9987 9.21992C6.55962 9.21992 6.13041 9.08972 5.76533 8.84578C5.40025 8.60184 5.11571 8.25513 4.94768 7.84948C4.77966 7.44382 4.73569 6.99746 4.82135 6.56682C4.90701 6.13618 5.11845 5.74061 5.42892 5.43014C5.73939 5.11967 6.13496 4.90823 6.5656 4.82258C6.99623 4.73692 7.4426 4.78088 7.84825 4.94891C8.25391 5.11693 8.60062 5.40147 8.84456 5.76655C9.0885 6.13163 9.2187 6.56084 9.2187 6.99992C9.2187 7.29145 9.16128 7.58013 9.04971 7.84948C8.93814 8.11882 8.77462 8.36355 8.56847 8.5697C8.36233 8.77584 8.1176 8.93937 7.84825 9.05093C7.57891 9.1625 7.29023 9.21992 6.9987 9.21992Z" fill="#2A2D36"/>
</svg>
