<svg width="12" height="11" viewBox="0 0 12 11" fill="none" xmlns="http://www.w3.org/2000/svg">
<path d="M11.3346 10.307V6.49821C11.3346 4.45761 10.2068 3.50805 8.70235 3.50805C7.48839 3.50805 6.94471 4.15288 6.64202 4.60531V3.66383H4.35548C4.38569 4.28755 4.35548 10.307 4.35548 10.307H6.64202V6.59689C6.64202 6.39891 6.6568 6.20031 6.71721 6.05881C6.88237 5.66223 7.25832 5.25138 7.89004 5.25138C8.71777 5.25138 9.04874 5.86021 9.04874 6.75328V10.3076L11.3346 10.307ZM1.94619 2.7571C2.74308 2.7571 3.23985 2.24633 3.23985 1.60895C3.22506 0.957302 2.74308 0.461426 1.96098 0.461426C1.17887 0.461426 0.667969 0.957302 0.667969 1.60895C0.667969 2.24695 1.16409 2.7571 1.93206 2.7571H1.94619ZM3.08947 10.307V3.66383H0.803567V10.307H3.08947Z" fill="#2A2D36"/>
</svg>
