<svg width="16" height="16" viewBox="0 0 16 16" fill="none" xmlns="http://www.w3.org/2000/svg">
<path d="M14.6654 3.86656C14.1643 4.08396 13.6343 4.22767 13.092 4.29323C13.6641 3.95144 14.0929 3.41375 14.2987 2.7799C13.7611 3.09994 13.1725 3.32543 12.5587 3.44656C12.1484 3.00161 11.602 2.70543 11.0052 2.60446C10.4085 2.5035 9.79506 2.60347 9.26122 2.88869C8.72739 3.17391 8.30332 3.62825 8.05552 4.18045C7.80773 4.73266 7.75023 5.35149 7.89203 5.9399C6.80498 5.88491 5.74166 5.60186 4.77113 5.10914C3.80061 4.61641 2.9446 3.92502 2.2587 3.0799C2.01812 3.50001 1.89171 3.97578 1.89203 4.4599C1.89118 4.90948 2.00151 5.35231 2.2132 5.74894C2.42489 6.14557 2.73138 6.4837 3.10536 6.73323C2.67068 6.7214 2.24529 6.60476 1.86536 6.39323V6.42656C1.86862 7.05649 2.08936 7.66596 2.49024 8.15187C2.89112 8.63779 3.44754 8.97032 4.06536 9.09323C3.82753 9.16561 3.58061 9.20377 3.33203 9.20656C3.15996 9.20455 2.98831 9.18895 2.8187 9.1599C2.99464 9.70177 3.33511 10.1753 3.79275 10.5147C4.25038 10.854 4.80241 11.0423 5.37203 11.0532C4.41017 11.8101 3.22262 12.2231 1.9987 12.2266C1.77585 12.2273 1.55319 12.2139 1.33203 12.1866C2.58165 12.9934 4.03791 13.4217 5.52536 13.4199C6.55183 13.4306 7.57012 13.2366 8.52077 12.8493C9.47143 12.462 10.3354 11.8892 11.0622 11.1642C11.789 10.4393 12.364 9.57682 12.7537 8.62717C13.1435 7.67751 13.3401 6.65971 13.332 5.63323C13.332 5.5199 13.332 5.3999 13.332 5.2799C13.8552 4.88977 14.3063 4.41151 14.6654 3.86656Z" fill="#2A2D36"/>
</svg>
