<svg width="180" height="180" viewBox="0 0 180 180" fill="none" xmlns="http://www.w3.org/2000/svg">
<path d="M38.6849 8.18086C38.2208 8.20723 37.748 8.32747 37.2737 8.55809L27.7734 14.7456L31.4648 22.3323L42.1963 18.6743C46.7807 16.444 43.1673 7.92668 38.6849 8.18086ZM77.6823 8.18086C73.1999 7.92668 69.5869 16.444 74.1709 18.6743L84.9023 22.3323L88.5938 14.7456L79.0935 8.55809C78.6189 8.32747 78.146 8.20688 77.6823 8.18086ZM23.0186 18.096L10.0195 24.5953V26.5511C10.0195 41.4573 15.7834 61.3424 24.4406 77.9368C28.7701 86.2337 33.8249 93.6844 39.4418 99.2078C44.1872 103.874 49.4297 107.263 55.0505 108.203C55.4889 131.052 61.1184 147.097 69.8256 157.437C78.8973 168.209 91.2786 172.496 103.381 171.74C122.264 170.56 140.878 157.601 148.149 139.05C145.925 139.047 143.709 138.779 141.548 138.252C134.694 153.611 118.716 164.442 102.987 165.425C92.5886 166.075 82.4695 162.627 74.6666 153.361C67.1896 144.482 61.817 129.982 61.38 108.191C66.9769 107.237 72.1976 103.856 76.9261 99.2081C82.5423 93.6851 87.5971 86.2344 91.9262 77.9375C100.583 61.3431 106.347 41.458 106.347 26.5518V24.5953L93.3483 18.0956L90.5182 23.7558L99.9271 28.4611C99.4546 41.6025 94.1579 59.9787 86.3156 75.009C82.2076 82.8833 77.4186 89.8467 72.4887 94.6948C67.5584 99.5428 62.6221 102.137 58.1836 102.137C53.7451 102.137 48.8088 99.5428 43.8785 94.6948C38.9486 89.8467 34.1596 82.8833 30.0516 75.0083C22.2089 59.978 16.9123 41.6029 16.4398 28.4607L25.8486 23.7558L23.0186 18.096ZM148.184 89.1288C136.108 89.1288 126.387 98.8502 126.387 110.926C126.387 123.002 136.108 132.723 148.184 132.723C160.259 132.723 169.98 123.002 169.98 110.926C169.98 98.8502 160.259 89.1288 148.184 89.1288ZM148.184 99.6757C154.359 99.6757 159.434 104.75 159.434 110.926C159.434 117.102 154.359 122.176 148.184 122.176C142.008 122.176 136.934 117.102 136.934 110.926C136.934 104.75 142.008 99.6757 148.184 99.6757ZM148.184 106.004C145.427 106.004 143.262 108.17 143.262 110.926C143.262 113.682 145.427 115.848 148.184 115.848C150.94 115.848 153.105 113.682 153.105 110.926C153.105 108.17 150.94 106.004 148.184 106.004Z" fill="#5E5E3C"/>
</svg>
